<?xml version="1.0" encoding="UTF-8" standalone="no"?>
<svg
   xmlns:dc="http://purl.org/dc/elements/1.1/"
   xmlns:cc="http://creativecommons.org/ns#"
   xmlns:rdf="http://www.w3.org/1999/02/22-rdf-syntax-ns#"
   xmlns:svg="http://www.w3.org/2000/svg"
   xmlns="http://www.w3.org/2000/svg"
   xmlns:sodipodi="http://sodipodi.sourceforge.net/DTD/sodipodi-0.dtd"
   xmlns:inkscape="http://www.inkscape.org/namespaces/inkscape"
   width="300"
   height="159"
   viewBox="0 0 2732 1439"
   version="1.0"
   id="svg2"
   sodipodi:version="0.32"
   inkscape:version="0.46"
   sodipodi:docname="IndiaPostnewlogojpg.svg"
   inkscape:output_extension="org.inkscape.output.svg.inkscape">
  <metadata
     id="metadata46">
    <rdf:RDF>
      <cc:Work
         rdf:about="">
        <dc:format>image/svg+xml</dc:format>
        <dc:type
           rdf:resource="http://purl.org/dc/dcmitype/StillImage" />
      </cc:Work>
    </rdf:RDF>
  </metadata>
  <defs
     id="defs44">
    <inkscape:perspective
       sodipodi:type="inkscape:persp3d"
       inkscape:vp_x="0 : 899.375 : 1"
       inkscape:vp_y="0 : 1000 : 0"
       inkscape:vp_z="3415 : 899.375 : 1"
       inkscape:persp3d-origin="1707.5 : 599.58333 : 1"
       id="perspective48" />
  </defs>
  <sodipodi:namedview
     inkscape:window-height="669"
     inkscape:window-width="640"
     inkscape:pageshadow="2"
     inkscape:pageopacity="0.0"
     guidetolerance="10.0"
     gridtolerance="10.0"
     objecttolerance="10.0"
     borderopacity="1.0"
     bordercolor="#666666"
     pagecolor="#ffffff"
     id="base"
     showgrid="false"
     inkscape:zoom="0.15929722"
     inkscape:cx="1707.5"
     inkscape:cy="899.375"
     inkscape:window-x="161"
     inkscape:window-y="95"
     inkscape:current-layer="svg2" />
  <g
     id="#ffffffff" />
  <g
     id="#b02925ff">
    <path
       d="M 825.05,0 L 843,0 C 847.35,1.63 851.95,2.65 856.04,4.92 C 864.9,9.66 872.49,16.99 877.02,26 C 883.43,39.07 884.22,54.21 882.41,68.44 C 943.19,68.49 1003.98,68.44 1064.76,68.46 C 1064.77,71.54 1064.78,74.61 1064.78,77.69 C 1052.99,77.7 1041.2,77.77 1029.41,77.67 C 1029.25,124.45 1029.37,171.22 1029.36,217.99 C 1029.03,222.55 1030.75,228.15 1035.74,229.33 C 1040.43,230.01 1045.21,229.53 1049.95,229.63 C 1050.08,232.65 1050.11,235.68 1050.06,238.71 C 1029.67,238.71 1009.28,238.65 988.9,238.75 C 988.76,235.68 988.84,232.6 989.17,229.55 C 993.74,229.54 998.36,230.01 1002.91,229.3 C 1006.98,228.57 1008.93,224.31 1009.54,220.63 C 1010.52,213.93 1009.99,207.15 1009.88,200.42 C 998.55,210.16 984.75,217.17 970.07,220.12 C 959.4,222.39 947.88,220.25 938.8,214.2 C 927.21,207.01 919.63,195.29 913.47,183.44 C 908.79,174.25 902.62,165.34 893.47,160.13 C 894.61,156.7 896,153.34 897.68,150.13 C 911.71,162.7 933.85,162.99 949.7,153.71 C 957.29,149.23 960.36,140.2 961.44,131.91 C 962.54,121.17 963.04,110 959.54,99.62 C 956.83,92.12 952.09,84.91 944.92,81.05 C 940.06,78.37 934.43,77.63 928.96,77.7 C 913.06,77.74 897.16,77.67 881.27,77.76 C 881.19,124.87 881.23,171.98 881.26,219.09 C 881,223.5 883.28,228.56 888.03,229.41 C 892.59,229.96 897.2,229.57 901.78,229.64 C 901.8,232.67 901.8,235.69 901.8,238.72 C 881.43,238.61 861.06,238.83 840.69,238.63 C 840.7,235.63 840.72,232.64 840.75,229.65 C 845.77,229.42 850.97,230.35 855.87,228.96 C 860.84,226.81 861.75,220.71 861.82,215.89 C 861.85,169.84 861.93,123.78 861.83,77.72 C 844.61,77.7 827.39,77.76 810.17,77.68 C 809.59,93.77 810.06,109.88 809.91,125.98 C 809.95,156.65 809.83,187.32 809.96,217.99 C 809.81,222.39 811.11,227.83 815.9,229.25 C 820.7,230.26 825.67,229.49 830.55,229.72 C 830.6,232.74 830.63,235.75 830.63,238.77 C 810.25,238.78 789.87,238.84 769.48,238.74 C 769.5,235.73 769.54,232.73 769.6,229.73 C 774.18,229.58 778.8,230.1 783.34,229.41 C 788.03,228.58 789.93,223.47 790.38,219.3 C 790.91,212.56 790.52,205.79 790.65,199.03 C 790.46,186.13 791.49,173.01 788.41,160.34 C 787.1,154.1 783.7,148.36 779.04,144.05 C 768.93,134.88 751.6,132.45 740.85,141.84 C 731.34,150.01 728.26,163.03 727.44,175.03 C 726.86,187.32 726.77,199.9 730.15,211.84 C 732.17,219.86 737.07,227.01 743.8,231.81 C 740.87,234.18 737.88,236.47 734.89,238.75 C 728.87,235.54 723.33,231.35 718.99,226.06 C 709.71,215.34 705.63,200.96 705.56,186.96 C 705.21,172.56 708.86,157.59 718.2,146.32 C 727.34,134.57 741.97,127.29 756.93,127.63 C 769.26,127.27 781.27,132.07 790.63,139.96 C 790.64,125.66 790.66,111.36 790.64,97.06 C 790.58,91.1 789.59,84.35 784.74,80.29 C 782.11,77.91 778.35,77.68 774.98,77.69 C 740.89,77.77 706.8,77.63 672.7,77.78 C 684.12,85.99 690.57,99.41 692.78,113.02 C 695.57,130.83 693.68,150.59 682.16,165.16 C 672.75,177.77 657.31,184.89 641.75,185.49 C 643.84,192.37 648.01,198.31 651.46,204.55 C 657.05,213.39 664.62,222.01 674.9,225.23 C 684.24,228.05 693.92,223.69 700.92,217.58 C 702.34,219.56 703.74,221.57 705.08,223.63 C 702.12,226.53 699.12,229.43 695.61,231.66 C 686.3,237.9 674.14,239.75 663.42,236.47 C 654.49,233.9 647.16,227.73 640.92,221.07 C 633.3,212.47 629.17,201.57 622.88,192.09 C 618.33,185.87 613.08,180.09 606.87,175.49 C 607.51,171.53 608.99,167.8 610.8,164.25 C 620.51,174.08 635.73,177.49 648.97,174.18 C 656.83,172.37 665.38,168.95 669.16,161.26 C 675.21,149.17 674.98,135.19 674.63,122.01 C 673.86,109.74 671.73,96.39 662.95,87.11 C 657.42,80.94 649.15,77.71 640.94,77.74 C 625.14,77.68 609.34,77.74 593.54,77.74 C 593.52,124.49 593.52,171.24 593.53,217.99 C 593.32,222.27 594.65,227.49 599.13,229.1 C 604.01,230.24 609.1,229.5 614.07,229.58 C 614.18,232.58 614.25,235.59 614.33,238.59 C 593.94,238.86 573.54,238.61 553.15,238.74 C 553.13,235.7 553.14,232.66 553.2,229.62 C 558.06,229.49 563.03,230.17 567.82,229.1 C 573.41,227.02 574.07,220.09 574.22,214.97 C 574.25,175.96 574.21,136.95 574.24,97.95 C 574.14,93.07 573.7,87.97 571.2,83.66 C 569.24,80.03 565.19,77.65 561.06,77.73 C 549.18,77.64 537.3,77.87 525.42,77.63 C 525.14,124.41 525.37,171.2 525.31,217.99 C 525.04,222.35 526.5,227.61 531.1,229.13 C 535.92,230.17 540.93,229.46 545.83,229.59 C 546.03,232.62 546.1,235.66 545.95,238.69 C 525.53,238.63 505.11,238.86 484.7,238.57 C 484.72,235.55 484.83,232.53 485.15,229.54 C 489.73,229.56 494.36,230.01 498.91,229.3 C 502.53,228.55 504.63,224.95 505.32,221.57 C 506.17,217.09 505.88,212.5 505.93,207.97 C 505.84,193.37 506,178.77 505.93,164.17 C 494.86,164.33 483.79,164.13 472.72,164.27 C 472.72,172.18 472.73,180.08 472.74,187.99 C 472.72,195.35 472.39,202.87 469.91,209.88 C 467.26,217.37 460.17,222.64 452.57,224.32 C 443.65,226.33 434.03,226.77 425.35,223.51 C 414.62,219.54 405.48,210.42 403.01,199.06 C 401.69,192.59 401.75,185.78 403.38,179.37 C 406.6,167.05 417.7,157.59 430.1,155.36 C 438.8,153.93 447.66,155.11 456.43,154.61 C 455.73,148.42 455.59,142.19 455.23,135.98 C 447.55,138.17 439.48,139.34 431.52,138.34 C 421,136.85 411.2,130.34 406.11,120.97 C 399.82,108.65 400.46,92.25 409.37,81.32 C 416.72,72.31 428.42,67.13 440.04,67.58 C 448.89,67.81 458.62,69.33 465.06,75.99 C 471.18,81.91 472.41,90.89 472.54,99 C 472.75,117.54 472.66,136.09 472.69,154.64 C 483.75,154.89 494.82,154.68 505.88,154.82 C 505.96,136.22 505.89,117.61 505.92,99.01 C 506.01,92.57 505.51,85.24 500.47,80.57 C 495.57,76.21 488.53,77.68 482.54,77.44 C 482.57,74.47 482.6,71.49 482.62,68.52 C 583.28,68.28 683.95,68.53 784.61,68.45 C 783.14,55.39 783.54,41.73 788.38,29.35 C 794.46,14.11 808.87,2.66 825.05,0 M 816.99,13.76 C 809.46,20.39 806.03,30.35 804.73,40.04 C 803.56,49.47 803.18,59.07 804.39,68.51 C 823.76,68.4 843.12,68.48 862.49,68.47 C 863.72,55.37 863.65,41.85 859.95,29.14 C 857.39,20.48 851.29,12.36 842.59,9.25 C 834.06,6.18 823.75,7.46 816.99,13.76 M 432.57,73.8 C 428.35,74.94 424.75,78.01 422.87,81.95 C 420.62,86.64 419.9,91.89 419.6,97.04 C 419.27,105.57 419.44,114.33 422.3,122.48 C 424.14,127.15 427.99,131.34 432.99,132.57 C 437.3,133.36 442.18,132.77 445.57,129.77 C 453.11,124.03 455.24,113.98 455.53,105.01 C 455.85,95.45 454.32,84.78 447.21,77.76 C 443.51,73.87 437.71,72.53 432.57,73.8 M 970.7,86.42 C 978.41,97.22 981.32,110.94 980.46,124.05 C 979.53,136.11 973.46,147.48 964.46,155.47 C 954.78,164.66 941.37,168.57 928.33,169.44 C 932.47,179.36 936.43,190.06 944.86,197.22 C 951.69,202.65 960.06,207.04 969.01,206.74 C 983.63,206.82 997.45,199.95 1008.51,190.8 C 1010.55,189.59 1009.76,186.95 1010.08,184.99 C 1010.11,156.66 1010.08,128.33 1010.09,100 C 1009.97,94.74 1010,89.19 1007.46,84.42 C 1005.61,80.43 1001.37,77.58 996.93,77.72 C 985.27,77.71 973.62,77.63 961.97,77.83 C 964.79,80.79 968.37,82.98 970.7,86.42 M 431.38,161.4 C 424.72,163.98 421.51,171.23 420.49,177.86 C 419.18,187.71 418.81,197.95 421.42,207.63 C 422.59,212.35 425.77,216.62 430.16,218.79 C 436.1,221.69 443.7,219.91 448,214.98 C 454.35,208.04 455.84,198.12 455.58,189.05 C 455.38,180.27 453.53,170.58 446.6,164.52 C 442.66,160.69 436.5,159.36 431.38,161.4 z"
       id="path6"
       style="opacity:1;fill:#b02925" />
    <path
       d="M 1110.29,68.48 C 1228.44,68.43 1346.6,68.48 1464.76,68.46 C 1464.78,71.53 1464.78,74.61 1464.77,77.69 C 1439.62,77.72 1414.48,77.74 1389.33,77.68 C 1389.13,90.25 1389.23,102.83 1389.29,115.4 C 1406.01,102.73 1431.72,103.31 1447.29,117.65 C 1459.95,128.49 1465.51,145.69 1464.73,162.02 C 1464.78,177.3 1458.88,192.93 1447.02,202.91 C 1434.84,214.12 1416.31,216.57 1401.04,210.9 C 1402.55,208.39 1404.09,205.89 1405.64,203.4 C 1411.9,206.6 1419.47,207.1 1426.03,204.5 C 1433.09,201.5 1438.26,195.05 1440.83,187.93 C 1444.72,177.43 1445.02,166.06 1444.77,154.99 C 1444.54,146.24 1443.27,137.35 1439.63,129.32 C 1435.81,121.37 1428.18,114.56 1419.03,114.18 C 1411.82,113.54 1404.29,116.07 1399.34,121.43 C 1392.04,128.97 1389.89,139.91 1389.28,150.02 C 1389.19,173.01 1389.22,195.99 1389.26,218.97 C 1388.95,223.41 1391.36,228.43 1396.07,229.34 C 1400.61,229.77 1405.2,229.41 1409.77,229.47 C 1409.8,232.51 1409.78,235.55 1409.73,238.59 C 1389.39,238.52 1369.06,238.62 1348.72,238.53 C 1348.7,235.54 1348.69,232.54 1348.71,229.55 C 1353.46,229.32 1358.31,229.98 1363.02,229.05 C 1366.67,228.14 1368.65,224.4 1369.28,220.95 C 1370.32,215.33 1369.56,209.58 1369.89,203.91 C 1360.33,210.6 1348.71,214.64 1336.95,213.6 C 1320.78,212.91 1306.4,201.9 1299.3,187.72 C 1293.46,176.1 1292.45,162.66 1294,149.92 C 1295.85,135.54 1303.61,121.8 1315.82,113.75 C 1331.91,102.95 1354.71,104.18 1369.89,116.1 C 1369.6,107.78 1370.22,99.43 1369.45,91.14 C 1368.74,85.04 1364.85,77.93 1357.98,77.73 C 1330.49,77.71 1303,77.68 1275.52,77.75 C 1275.55,124.82 1275.48,171.88 1275.55,218.95 C 1275.38,223.23 1277.34,228.41 1281.99,229.39 C 1286.69,229.99 1291.45,229.5 1296.18,229.67 C 1296.2,232.69 1296.2,235.72 1296.11,238.75 C 1275.77,238.64 1255.43,238.69 1235.09,238.73 C 1235.04,235.7 1235.05,232.68 1235.2,229.66 C 1240.89,229.01 1247.59,231.32 1252.48,227.47 C 1257.03,222.53 1256.13,215.2 1256.27,209 C 1256.27,165.25 1256.32,121.5 1256.31,77.74 C 1244.06,77.66 1231.82,77.71 1219.57,77.74 C 1219.51,98.65 1219.58,119.56 1219.53,140.48 C 1213.13,140.53 1206.74,140.52 1200.36,140.51 C 1199.84,133.47 1201.69,125.71 1197.6,119.42 C 1193.24,111.33 1183.85,107.45 1175.01,107.32 C 1167.71,106.83 1159.96,108.4 1154.35,113.34 C 1146.63,120.05 1145.08,132.28 1149.95,141.09 C 1152.65,146.44 1158.07,150.17 1163.97,151.08 C 1179.77,153.25 1195.94,151.51 1211.66,154.46 C 1220,156.41 1227.24,162.02 1231.87,169.15 C 1238.76,180.13 1239.04,194.42 1234.24,206.26 C 1226.22,225.1 1206.42,237.92 1186.1,238.69 C 1168.99,240.51 1151.49,234.77 1138.38,223.73 C 1117.7,207.45 1106.46,182.01 1102.4,156.51 C 1105.11,156.38 1107.81,156.26 1110.53,156.15 C 1112.55,170.7 1117.63,184.92 1126.23,196.9 C 1134.76,208.92 1146.54,219.26 1160.97,223.31 C 1173.02,226.5 1186.56,226.77 1197.83,220.79 C 1206.35,216.69 1212.78,208.88 1215.89,200.01 C 1218.31,192.62 1217.75,184.54 1215.76,177.13 C 1213.27,168.94 1205.24,163.74 1197.02,162.77 C 1182.73,160.91 1168.04,163.72 1153.92,160.16 C 1146.24,158.21 1138.45,154.91 1133.22,148.73 C 1126.99,141.47 1126.03,130.56 1129.79,121.93 C 1133.4,113.71 1141.54,108.64 1149.63,105.54 C 1166.02,99.94 1184.62,100.74 1200.28,108.29 C 1200.05,100.74 1201.16,92.82 1198.32,85.63 C 1196.57,81.05 1192.11,77.47 1187.07,77.71 C 1161.46,77.68 1135.84,77.76 1110.23,77.68 C 1110.22,74.61 1110.24,71.55 1110.29,68.48 M 1332.41,115.64 C 1324.43,118.82 1319.02,126.41 1316.49,134.38 C 1312.88,145.88 1312.94,158.14 1313.62,170.06 C 1314.55,180.17 1316.64,190.99 1323.87,198.64 C 1331.6,207.44 1346.21,208.52 1355.35,201.31 C 1362.54,195.89 1366.04,187.02 1367.64,178.41 C 1369.78,166.03 1369.75,153.31 1367.81,140.91 C 1366.35,132.15 1362.47,123.21 1354.87,118.11 C 1348.39,113.72 1339.69,112.97 1332.41,115.64 z"
       id="path8"
       style="opacity:1;fill:#b02925" />
    <path
       d="M 402.07,302.79 C 835.37,302.76 1268.67,302.79 1701.98,302.78 C 1757.22,302.86 1812.47,302.61 1867.7,302.9 L 1868.96,303.14 C 1826.69,333.09 1784.57,363.27 1742.61,393.65 C 1680.23,438.98 1617.65,484.04 1554.99,528.97 C 1523.54,551.23 1492.02,573.38 1460.29,595.24 C 1445.48,605.06 1430.76,615.02 1415.97,624.88 C 1349.49,668.56 1281.12,709.9 1208.36,742.35 C 1169.34,759.62 1128.51,773.89 1086,779.22 C 1062,781.98 1037.22,782.97 1013.76,776.2 C 996.11,771.17 979.81,761.97 965.76,750.25 C 952.53,739.49 941.76,726.2 930.2,713.77 C 903.37,683.34 876.55,652.86 848.1,623.92 C 798.76,574.52 743.05,531.5 682.82,496.21 C 680.08,494.59 677.31,492.55 673.98,492.6 C 632.18,491.25 590.38,493.34 548.68,496.02 C 555.26,498.54 562.22,499.88 568.88,502.18 C 604.9,513.86 638.61,531.59 670.95,551.07 C 700.19,568.94 728.32,588.58 755.42,609.53 C 776.86,625.52 796.78,643.43 816.37,661.6 C 835.48,679.87 853.97,698.85 870.66,719.38 C 893.18,746.88 915.58,775.58 945.75,795.19 C 964.22,807.73 985.39,816.03 1007.19,820.61 C 1027.18,825.15 1047.83,825.15 1068.21,824.2 C 1092.92,822.38 1117.35,817.41 1141.03,810.15 C 1176.29,799.33 1210.23,784.6 1243.25,768.24 C 1311.65,733.58 1376.21,691.88 1438.84,647.79 C 1535.69,580.35 1629.8,509.1 1723.73,437.68 C 1783.46,392.7 1842.51,346.8 1902.99,302.82 C 1941.72,302.72 1980.45,302.79 2019.19,302.8 L 2018.11,303.75 C 1998.98,316.28 1980.13,329.25 1961.34,342.3 C 1834.79,429.43 1711.8,521.58 1586.57,610.57 C 1556.27,632.43 1525.44,653.53 1494.69,674.74 C 1431.53,717.91 1367.05,759.33 1299.62,795.56 C 1263.58,815.11 1226.43,832.74 1187.99,847.06 C 1145.65,862.71 1101.3,874.29 1056.02,876.06 C 1016.81,877.76 977.07,870.41 941.59,853.5 C 906.76,836.27 879.14,807.72 855.62,777.35 C 844.13,763.11 833.97,747.84 821.85,734.11 C 803.54,712.86 783.92,692.72 763.13,673.88 C 711.15,626.31 651.81,587.43 589.8,554.25 C 551.76,534.13 512.45,516.23 471.69,502.33 C 467.53,501.01 463.15,502.27 458.91,502.32 C 442.01,503.71 425.03,504.56 408.22,506.86 C 406.07,507.14 403.91,507.25 401.76,507.39 C 402.04,449.26 401.8,391.13 401.88,333.01 C 401.99,322.94 401.65,312.85 402.07,302.79 z"
       id="path10"
       style="opacity:1;fill:#b02925" />
    <path
       d="M 1951.37,379.38 C 1984.1,355.41 2016.89,331.49 2050.3,308.47 C 2050.31,332.34 2050.32,356.2 2050.3,380.07 C 2049.52,380.72 2048.71,381.33 2047.93,381.92 C 1919.17,468.67 1795.74,562.94 1669.89,653.79 C 1638.7,676.77 1606.87,698.86 1575.28,721.28 C 1515.68,763.29 1455.3,804.26 1392.87,841.96 C 1358.64,862.53 1323.96,882.38 1288.28,900.31 C 1250.28,919.29 1211.48,936.96 1170.93,949.81 C 1126.01,964.12 1079.31,974.35 1031.99,974.66 C 992.17,975.58 952.19,968.63 915.07,954.19 C 879.18,939.87 846.18,918.43 818.29,891.71 C 804.93,878.96 793.67,864.26 782.19,849.85 C 771.66,836.39 761.95,822.26 750.55,809.49 C 712.38,764.16 667.16,725.01 618.13,691.84 C 554.29,648.56 483.1,617.38 410.4,592.29 C 407.47,591.35 404.45,590.55 401.82,588.91 C 401.93,574.56 401.88,560.21 401.83,545.86 C 433.03,554.42 463.57,565.33 493.68,577.15 C 534.52,593.37 574.32,612.17 612.95,633.12 C 686.73,673.88 753.41,727.9 806.97,793.11 C 818.13,807.2 829.34,821.26 840.92,835.01 C 864.02,860.82 891.68,882.76 922.78,898.15 C 942.04,907.15 962.26,914.27 983.13,918.51 C 1008.72,923.83 1035.01,925.38 1061.09,923.79 C 1086.04,922.38 1110.67,917.65 1134.88,911.61 C 1175.52,901.21 1214.69,885.7 1252.45,867.54 C 1324.03,833.13 1391.2,790.4 1456.79,745.8 C 1517.53,702.79 1577.85,659.16 1637.38,614.47 L 1638.6,616.49 C 1638.47,615.75 1638.32,615.01 1638.19,614.29 C 1650.89,604.21 1664.16,594.86 1676.98,584.95 C 1739.42,538.07 1801.67,490.96 1864.18,444.19 C 1893.28,422.64 1922.09,400.69 1951.37,379.38 z"
       id="path12"
       style="opacity:1;fill:#b02925" />
    <path
       d="M 1871.55,554.56 C 1930.52,509.98 1990.15,466.27 2050.35,423.38 C 2050.27,696.47 2050.32,969.57 2050.33,1242.67 C 1500.88,1242.7 951.44,1242.66 401.99,1242.69 C 401.68,1050.17 402.08,857.65 401.79,665.14 C 407.7,665.98 413.19,668.46 418.9,670.1 C 486.21,693.12 551.05,724.04 609.82,764.27 C 631.25,779.15 651.77,795.38 670.95,813.07 C 686.8,826.85 701.41,842 715.31,857.73 C 724.47,867.34 732.01,878.31 740.51,888.48 C 749.9,899.74 758.78,911.44 768.85,922.13 C 794.53,949.66 824.38,973.45 857.45,991.53 C 892.04,1010.4 930.03,1022.89 968.98,1028.71 C 994.08,1032.85 1019.64,1033.31 1045.01,1032.06 C 1069.63,1030.73 1094.14,1027.47 1118.27,1022.35 C 1156.46,1014.25 1193.42,1001.25 1229.52,986.54 C 1286.73,961.97 1341.82,932.6 1394.63,899.67 C 1428.05,879.14 1460.56,857.2 1492.97,835.13 C 1524.07,814.02 1554.5,791.94 1584.91,769.86 C 1613.64,748.64 1642.54,727.65 1671.05,706.12 C 1738.12,655.92 1804.68,605.04 1871.55,554.56 z"
       id="path14"
       style="opacity:1;fill:#b02925" />
    <path
       d="M 1553.47,1306.61 C 1563.41,1306.32 1573.33,1305.52 1583.28,1305.4 C 1583.21,1339.94 1583.25,1374.48 1583.25,1409.03 C 1583.25,1412.64 1583.52,1417.01 1586.8,1419.29 C 1589.99,1421.38 1594.05,1420.52 1597.66,1420.74 C 1597.69,1422.74 1597.71,1424.74 1597.74,1426.77 C 1589.1,1426.83 1580.47,1426.78 1571.84,1426.82 C 1570.97,1421.74 1570.57,1416.61 1569.7,1411.54 C 1565.85,1418.18 1560.39,1424.43 1552.84,1426.79 C 1545.62,1428.92 1537.39,1428.18 1530.95,1424.16 C 1523.22,1419.4 1517.7,1411.38 1515.5,1402.62 C 1513.2,1393.96 1513.14,1384.74 1515.11,1376.01 C 1517.34,1366.5 1523.24,1357.76 1531.61,1352.64 C 1539.99,1347.51 1551.33,1346.78 1559.74,1352.24 C 1564.05,1354.81 1567.09,1358.92 1569.85,1363.02 C 1569.66,1348.66 1569.87,1334.29 1569.75,1319.94 C 1569.83,1317.1 1567.7,1314.59 1565.1,1313.73 C 1561.37,1312.4 1557.35,1312.7 1553.48,1312.66 C 1553.46,1310.63 1553.46,1308.61 1553.47,1306.61 M 1543.12,1356.09 C 1537.76,1357.92 1533.67,1362.61 1532.09,1368 C 1529.45,1376.69 1529.36,1385.94 1529.99,1394.94 C 1530.72,1402.22 1531.61,1410.37 1537.24,1415.7 C 1541.93,1421.02 1550.39,1422.03 1556.47,1418.61 C 1561.96,1415.41 1565.9,1409.85 1567.76,1403.84 C 1569.95,1396.44 1570.1,1388.6 1569.6,1380.96 C 1568.78,1372.51 1565.6,1363.65 1558.58,1358.42 C 1554.25,1355 1548.26,1354.59 1543.12,1356.09 z"
       id="path16"
       style="opacity:1;fill:#b02925" />
    <path
       d="M 1620.47,1305.49 C 1626.76,1304.04 1633.13,1310.85 1630.96,1317.02 C 1629.7,1321.67 1624.35,1324.58 1619.76,1323.22 C 1615.89,1322.03 1612.68,1318.16 1613.15,1314 C 1613.23,1309.96 1616.54,1306.25 1620.47,1305.49 z"
       id="path18"
       style="opacity:1;fill:#b02925" />
    <path
       d="M 1362.42,1312.67 C 1362.41,1310.63 1362.42,1308.61 1362.45,1306.6 C 1380.89,1306.66 1399.33,1306.61 1417.77,1306.63 C 1417.75,1308.63 1417.77,1310.65 1417.79,1312.68 C 1412.41,1312.78 1406.9,1312.21 1401.66,1313.63 C 1398.63,1314.65 1398.9,1318.45 1398.64,1321.03 C 1398.62,1351.34 1398.59,1381.66 1398.65,1411.97 C 1398.88,1414.83 1398.52,1419.04 1402.03,1420.04 C 1407.16,1421.39 1412.58,1420.4 1417.83,1420.81 C 1417.79,1422.8 1417.77,1424.81 1417.79,1426.83 C 1399.32,1426.75 1380.85,1426.86 1362.39,1426.77 C 1362.41,1424.73 1362.45,1422.72 1362.51,1420.72 C 1367.69,1420.59 1372.96,1421.13 1378.08,1420.12 C 1381.77,1419.44 1381.39,1414.91 1381.63,1412.04 C 1381.68,1381.7 1381.69,1351.36 1381.62,1321.02 C 1381.48,1318.52 1381.74,1314.89 1378.86,1313.85 C 1373.58,1311.98 1367.89,1312.89 1362.42,1312.67 z"
       id="path20"
       style="opacity:1;fill:#b02925" />
    <path
       d="M 1761.85,1312.73 C 1761.75,1310.63 1761.86,1308.54 1762.24,1306.5 C 1782.83,1306.83 1803.43,1306.47 1824.03,1306.67 C 1832.51,1307.14 1841.35,1308.55 1848.55,1313.39 C 1855.6,1318 1860.73,1325.55 1861.9,1333.95 C 1863.29,1343.22 1861.54,1353.8 1854.4,1360.43 C 1845.84,1368.06 1834.43,1372.18 1823.03,1372.5 C 1814.73,1372.74 1806.43,1372.53 1798.14,1372.64 C 1798.22,1386.79 1797.92,1400.95 1798.29,1415.09 C 1798.12,1418.25 1801.12,1420.38 1804.03,1420.61 C 1809.15,1420.87 1814.3,1420.68 1819.44,1420.71 C 1819.46,1422.73 1819.48,1424.75 1819.53,1426.79 C 1800.31,1426.83 1781.1,1426.78 1761.88,1426.81 C 1761.74,1424.75 1761.82,1422.7 1762.13,1420.69 C 1766.95,1420.64 1771.8,1420.98 1776.62,1420.49 C 1779.2,1420.2 1780.94,1417.56 1780.77,1415.07 C 1780.78,1383.37 1780.8,1351.66 1780.76,1319.96 C 1780.96,1317.4 1779.96,1314.45 1777.3,1313.64 C 1772.28,1312.19 1766.98,1312.78 1761.85,1312.73 M 1799.21,1315.09 C 1797.64,1317.41 1798.3,1320.36 1798.14,1323 C 1798.13,1337.56 1798.1,1352.13 1798.15,1366.7 C 1806.14,1366.56 1814.17,1367.04 1822.15,1366.2 C 1828.9,1365.42 1836.14,1362.75 1839.75,1356.61 C 1843.9,1349.18 1844.01,1340.27 1843.24,1332.02 C 1842.59,1325.01 1838.67,1318.04 1832.12,1315.04 C 1824.52,1311.7 1816.03,1312.08 1807.92,1312.15 C 1804.89,1312.36 1801.17,1312.39 1799.21,1315.09 z"
       id="path22"
       style="opacity:1;fill:#b02925" />
    <path
       d="M 2014.59,1319.15 C 2016.28,1318.92 2017.97,1318.72 2019.73,1318.57 C 2020.87,1328.91 2019.95,1339.42 2020.22,1349.84 C 2028.42,1349.92 2036.62,1349.78 2044.83,1349.92 C 2044.78,1352.42 2044.75,1354.92 2044.7,1357.44 C 2036.56,1357.35 2028.43,1357.44 2020.3,1357.4 C 2020.18,1373.94 2020.23,1390.49 2020.28,1407.03 C 2020.19,1411.55 2022.22,1416.6 2026.65,1418.43 C 2031.17,1420.56 2036.81,1418.67 2039.75,1414.79 C 2043.66,1409.9 2044.4,1403.39 2044.77,1397.35 C 2046.63,1397.35 2048.5,1397.36 2050.4,1397.42 C 2049.58,1405.29 2048.78,1414.02 2043.11,1420.11 C 2035.53,1428.88 2020.61,1429.67 2011.99,1422.06 C 2007.62,1418 2006.39,1411.76 2006.61,1406.04 C 2006.61,1389.82 2006.65,1373.61 2006.59,1357.39 C 2002.19,1357.41 1997.8,1357.4 1993.42,1357.41 C 1993.39,1355.51 1993.39,1353.64 1993.4,1351.77 C 1998.58,1350.62 2003.79,1348.39 2007.12,1344.07 C 2012.61,1337.02 2014.21,1327.86 2014.59,1319.15 z"
       id="path24"
       style="opacity:1;fill:#b02925" />
    <path
       d="M 1882.37,1348.45 C 1891.83,1346.47 1902.24,1348.07 1910.2,1353.76 C 1918.88,1359.69 1924.46,1369.56 1925.84,1379.92 C 1927.8,1393.52 1925.12,1409 1914.54,1418.61 C 1906.69,1425.83 1895.58,1429.49 1884.98,1428 C 1876.44,1427.06 1868.66,1422.18 1863.35,1415.54 C 1857.4,1408.48 1854.8,1399.15 1854.48,1390.06 C 1854.1,1381.42 1855.77,1372.56 1860.17,1365.04 C 1865.05,1356.94 1873.01,1350.46 1882.37,1348.45 M 1887.46,1353.64 C 1880.32,1354.59 1874.91,1360.63 1872.43,1367.07 C 1869.25,1376 1869.18,1385.68 1869.68,1395.05 C 1870.33,1403.16 1872.06,1411.97 1878.29,1417.76 C 1885.02,1424.7 1897.55,1423.95 1903.67,1416.55 C 1910.2,1409.38 1910.86,1399.17 1911.41,1389.97 C 1911.46,1380.05 1911.37,1369.09 1905.2,1360.78 C 1901.27,1355.21 1894.11,1352.57 1887.46,1353.64 z"
       id="path26"
       style="opacity:1;fill:#b02925" />
    <path
       d="M 1939.13,1357.14 C 1945.66,1348.92 1957.55,1346.82 1967.27,1349.62 C 1971.06,1350.51 1974.29,1352.75 1977.72,1354.51 C 1980.46,1352.42 1982.27,1347.66 1986.47,1349.23 C 1987.04,1358.2 1987.81,1367.17 1988.46,1376.15 C 1986.61,1376.14 1984.8,1376.14 1983,1376.15 C 1981.4,1371.14 1979.29,1366.19 1975.86,1362.15 C 1969.43,1354.45 1957.48,1352.26 1948.6,1356.69 C 1942.78,1359.56 1939.56,1367.7 1943.74,1373.21 C 1948.47,1378.84 1956.41,1379.51 1963.17,1380.85 C 1971.1,1382.53 1979.97,1383.1 1986.37,1388.67 C 1990.66,1392.58 1993.71,1398.12 1994.02,1403.99 C 1994.24,1411.04 1989.83,1417.28 1984.65,1421.65 C 1978.57,1427.08 1969.99,1428.77 1962.06,1428.17 C 1955.45,1427.68 1949.35,1424.7 1944.02,1420.93 C 1942.25,1422.89 1940.62,1424.97 1938.81,1426.88 C 1937.58,1428.41 1935.38,1427.42 1933.73,1427.65 C 1933.4,1417.56 1932.53,1407.5 1932.23,1397.42 C 1933.93,1397.4 1935.66,1397.39 1937.41,1397.4 C 1940.08,1403.5 1942.39,1410 1947.12,1414.89 C 1952.02,1420.43 1959.75,1422.56 1966.95,1422.21 C 1971.94,1421.94 1977.32,1420.52 1980.67,1416.55 C 1984.29,1412.44 1984.79,1405.37 1980.71,1401.41 C 1978.44,1398.86 1974.93,1398.2 1971.81,1397.37 C 1963.88,1395.59 1955.83,1394.27 1948.08,1391.79 C 1942.57,1390.03 1937.5,1386.19 1935.26,1380.74 C 1931.68,1373.02 1933.71,1363.5 1939.13,1357.14 z"
       id="path28"
       style="opacity:1;fill:#b02925" />
    <path
       d="M 1422.68,1350.67 C 1431.13,1350.32 1439.56,1349.55 1448.01,1349.24 C 1449.11,1354.7 1449.57,1360.24 1450.38,1365.75 C 1454.8,1358.52 1461.52,1352.29 1469.98,1350.36 C 1477.87,1348.52 1487.18,1348.88 1493.58,1354.42 C 1499.52,1359.8 1501.89,1368.14 1502,1375.96 C 1502.24,1388.65 1501.94,1401.36 1502.16,1414.06 C 1502.13,1416.26 1502.87,1418.94 1505.14,1419.85 C 1508.4,1421.11 1512,1420.56 1515.44,1420.75 C 1515.47,1422.75 1515.49,1424.75 1515.54,1426.77 C 1502.15,1426.82 1488.76,1426.85 1475.37,1426.76 C 1475.39,1424.73 1475.43,1422.72 1475.49,1420.72 C 1479.44,1420.41 1484.26,1421.5 1487.36,1418.34 C 1489.01,1416.69 1488.59,1414.12 1488.76,1412.02 C 1488.69,1400.99 1488.83,1389.96 1488.67,1378.94 C 1488.55,1372.74 1487.19,1365.89 1482.2,1361.72 C 1476.34,1357.01 1467.53,1357.45 1461.34,1361.3 C 1454.36,1365.79 1450.67,1374.19 1450.4,1382.31 C 1450.11,1392.2 1450.34,1402.1 1450.25,1411.99 C 1450.23,1414.78 1450.42,1418.27 1453.2,1419.81 C 1456.52,1421.02 1460.18,1420.63 1463.68,1420.75 C 1463.67,1422.75 1463.69,1424.77 1463.72,1426.8 C 1450.28,1426.79 1436.84,1426.83 1423.4,1426.78 C 1423.43,1424.75 1423.48,1422.75 1423.55,1420.76 C 1428.01,1420.56 1435.35,1421.75 1436.67,1415.93 C 1436.96,1399.97 1436.7,1384 1436.79,1368.03 C 1436.84,1364.79 1436.8,1361.08 1434.25,1358.7 C 1431.29,1355.45 1426.54,1356.21 1422.63,1355.86 C 1422.64,1354.12 1422.64,1352.38 1422.68,1350.67 z"
       id="path30"
       style="opacity:1;fill:#b02925" />
    <path
       d="M 1675.41,1349.44 C 1683.99,1347.87 1693.24,1347.92 1701.37,1351.42 C 1708.06,1354.17 1713.16,1360.79 1713.36,1368.13 C 1713.55,1382.43 1713.34,1396.74 1713.44,1411.04 C 1713.49,1414.47 1714.14,1418.64 1717.43,1420.52 C 1720.65,1421.69 1723.93,1420.11 1726.86,1418.82 C 1727.6,1420.17 1728.42,1421.51 1729.03,1422.97 C 1724.09,1429.56 1713.49,1431.21 1706.9,1426.14 C 1703.76,1423.45 1702.03,1419.58 1700.44,1415.87 C 1695.37,1420.05 1690.84,1425.25 1684.42,1427.37 C 1676.26,1429.86 1667.17,1429.86 1659.21,1426.69 C 1652.01,1423.71 1647.42,1415.61 1649.1,1407.91 C 1650.38,1400.24 1656.73,1394.74 1663.23,1391.22 C 1674.49,1385.21 1687.2,1382.65 1699.76,1381.05 C 1699.3,1374.4 1701.48,1366.68 1696.83,1361.07 C 1690.03,1352.56 1676.27,1352.7 1668.03,1358.97 C 1664.79,1361.16 1667.81,1364.6 1669.16,1366.98 C 1671.28,1369.87 1671.22,1374.16 1668.81,1376.88 C 1664.73,1381.5 1656,1380.06 1653.67,1374.33 C 1651.9,1370.31 1652.71,1365.57 1655.11,1362 C 1659.68,1355.14 1667.38,1350.82 1675.41,1349.44 M 1672.15,1394.59 C 1664.98,1398.79 1662.43,1408.42 1665.35,1415.96 C 1667,1420.16 1671.44,1422.95 1675.96,1422.72 C 1685.51,1423.04 1694.29,1416.37 1697.87,1407.73 C 1700.61,1400.95 1699.65,1393.45 1699.67,1386.33 C 1690.28,1388.11 1680.49,1389.63 1672.15,1394.59 z"
       id="path32"
       style="opacity:1;fill:#b02925" />
    <path
       d="M 1601.21,1350.64 C 1611.25,1350.46 1621.3,1350.21 1631.34,1349.77 C 1631.49,1372.06 1631.12,1394.38 1631.52,1416.67 C 1633.24,1422.78 1641.21,1420.15 1645.9,1420.73 C 1645.89,1422.73 1645.9,1424.74 1645.91,1426.77 C 1631.52,1426.83 1617.13,1426.78 1602.74,1426.82 C 1602.71,1424.8 1602.69,1422.79 1602.69,1420.79 C 1607.06,1420.23 1612.32,1421.98 1616.03,1418.98 C 1618.29,1416.23 1617.49,1412.3 1617.7,1409.01 C 1617.6,1394.65 1617.7,1380.3 1617.66,1365.95 C 1617.67,1363.23 1616.8,1360.27 1614.41,1358.74 C 1610.56,1356.05 1605.57,1356.91 1601.17,1356.73 C 1601.16,1354.68 1601.17,1352.65 1601.21,1350.64 z"
       id="path34"
       style="opacity:1;fill:#b02925" />
  </g>
  <g
     id="#fee801ff">
    <path
       d="M 2519.46,34.46 C 2521.58,34.69 2524.23,33.73 2526.1,35.03 C 2524.53,35.59 2522.8,35.6 2521.23,35.71 C 2521.32,36.12 2521.51,36.94 2521.61,37.35 C 2519.61,37.73 2517.05,37.22 2515.98,39.36 C 2514.4,39.71 2512.87,40.05 2511.35,40.37 L 2511.49,41.36 C 2509.84,41.66 2507.84,41.62 2506.99,43.35 C 2505.5,43.77 2503.57,43.53 2503.08,45.32 C 2501.31,45.65 2499.64,46.19 2498.34,47.41 C 2496.49,47.87 2494.65,48.26 2492.84,48.61 C 2492.66,50.76 2490.45,50.31 2488.97,50.62 C 2488.37,52.1 2486.65,52.13 2485.45,52.65 L 2485.53,53.5 C 2483.92,53.79 2482.35,54.12 2480.81,54.48 C 2479.83,56.08 2477.87,56.08 2476.29,56.48 L 2476.6,57.44 C 2474.93,57.76 2473.1,57.85 2471.98,59.25 C 2467.67,61.24 2463.09,62.89 2459.15,65.45 C 2458.02,65.85 2456.95,66.24 2455.91,66.65 C 2454.36,67.69 2452.58,68.25 2451.09,69.3 C 2449.66,69.91 2448.05,70.18 2446.99,71.35 C 2445.49,71.71 2443.83,71.83 2443.08,73.35 C 2440.21,74.31 2437.35,75.42 2434.96,77.31 C 2433.61,77.91 2431.84,77.98 2431.23,79.47 C 2429.69,79.85 2427.57,79.48 2427.11,81.43 C 2425.78,81.64 2424.3,81.65 2424.03,83.28 C 2422.41,83.66 2420.85,84.03 2419.3,84.38 L 2419.56,85.47 C 2418,85.91 2415.56,85.28 2415.21,87.35 C 2410.79,88.35 2407.32,91.5 2403.01,92.74 C 2402.4,94.23 2400.54,94.02 2399.36,94.57 L 2399.61,95.39 C 2395.31,96.56 2391.92,99.76 2387.53,100.71 L 2387.63,101.43 C 2385.07,102.22 2382.95,103.97 2380.36,104.58 L 2380.61,105.43 C 2379.31,105.76 2378.05,106.12 2376.83,106.51 C 2375.93,107.83 2374.39,108.22 2373.02,108.73 C 2370.48,110.53 2367.67,112.04 2364.62,112.69 L 2364.68,113.33 C 2363.51,113.66 2362.64,114.32 2362.09,115.31 C 2360.59,115.73 2359.01,116.02 2357.98,117.24 C 2356.75,117.69 2355.56,118.14 2354.38,118.57 L 2354.58,119.46 C 2353.01,119.82 2351.47,120.21 2349.98,120.63 C 2349.42,121.93 2348.11,122.31 2346.96,122.75 C 2345.82,123.78 2344.42,124.33 2343.04,124.83 C 2339.85,127.26 2336.06,128.85 2332.52,130.71 L 2332.6,131.48 C 2331.33,131.83 2330.1,132.2 2328.91,132.57 C 2327.9,133.9 2326.3,134.29 2324.82,134.7 C 2324.58,136.31 2323.06,136.31 2321.83,136.57 C 2320.76,137.71 2319.29,138.24 2317.89,138.7 C 2316.7,139.61 2315.53,140.51 2314.37,141.4 C 2313.17,141.91 2312.02,142.46 2311.01,143.21 C 2308.94,144.39 2306.79,145.4 2304.8,146.66 C 2303.79,147.81 2302.26,148.16 2300.94,148.69 C 2299.93,149.63 2298.67,150.14 2297.44,150.6 L 2297.46,151.31 C 2296.2,151.88 2294.43,151.84 2294.01,153.44 C 2293.35,153.52 2292.05,153.69 2291.39,153.77 C 2291.39,154.15 2291.4,154.91 2291.4,155.3 C 2289.77,155.75 2287.27,155.29 2287.23,157.57 C 2286.62,157.62 2285.41,157.73 2284.8,157.78 C 2283.02,160.56 2279.06,160.83 2276.51,162.76 C 2276.16,163.17 2275.47,163.97 2275.12,164.37 C 2274.58,164.41 2273.5,164.48 2272.96,164.52 C 2272.54,166.19 2270.89,166.29 2269.58,166.68 C 2269.21,167.08 2268.48,167.88 2268.11,168.28 C 2267.57,168.35 2266.5,168.49 2265.97,168.56 C 2264.6,170.74 2261.99,171.52 2259.88,172.7 C 2258.77,173.79 2257.29,174.27 2255.89,174.72 C 2255.48,176.19 2253.94,176.27 2252.78,176.67 C 2250.86,178.53 2248.59,179.94 2246.09,180.83 C 2245.26,181.56 2244.38,182.19 2243.46,182.73 L 2243.44,183.32 C 2240.99,183.95 2239,185.52 2236.88,186.76 C 2235.58,187.8 2234.08,188.42 2232.49,188.67 C 2232.51,189.05 2232.55,189.81 2232.56,190.19 C 2231.91,190.28 2230.61,190.47 2229.96,190.56 C 2227.47,193.24 2223.92,194.96 2220.73,196.76 C 2218.54,198.4 2215.61,199.15 2214.07,201.51 C 2213.42,201.57 2212.13,201.69 2211.48,201.75 C 2211.46,202.15 2211.43,202.94 2211.42,203.34 C 2209.72,203.51 2208.19,204.05 2207.18,205.45 C 2206.39,206.04 2205.63,206.62 2204.88,207.21 C 2203.45,207.64 2201.93,207.92 2200.97,209.13 C 2199.98,209.86 2199.02,210.58 2198.09,211.3 C 2197.03,211.76 2195.97,212.23 2194.99,212.72 C 2193.02,214.8 2190.49,216.41 2187.6,216.69 C 2187.59,217.08 2187.58,217.86 2187.57,218.25 C 2187.03,218.26 2185.95,218.29 2185.41,218.3 L 2185.44,219.27 C 2184.23,219.87 2182.47,219.97 2182.11,221.55 C 2181.65,221.56 2180.74,221.59 2180.28,221.61 C 2180.32,222.02 2180.38,222.86 2180.41,223.27 C 2178.98,223.57 2177.56,223.89 2176.2,224.24 C 2175.07,226.95 2171.58,226.91 2169.97,229.19 C 2168.56,229.74 2167.15,230.32 2166.21,231.51 C 2164.97,231.92 2163.75,232.32 2162.57,232.7 C 2162.58,233.1 2162.6,233.9 2162.61,234.29 C 2161.94,234.34 2160.59,234.45 2159.92,234.5 C 2157.81,237.71 2153.3,238.22 2150.97,241.32 C 2150.5,241.47 2149.58,241.76 2149.11,241.91 C 2147.63,242.9 2146.14,243.89 2144.94,245.18 C 2142.28,245.9 2139.89,247.29 2138.06,249.33 C 2136.77,249.63 2135.39,249.82 2135.18,251.33 C 2133.82,251.65 2132.38,251.88 2132,253.44 C 2131.59,253.48 2130.75,253.57 2130.33,253.61 C 2130.36,254.01 2130.41,254.82 2130.44,255.22 C 2128.87,255.56 2127.32,256.02 2125.87,256.57 C 2124.96,257.41 2123.96,258.1 2122.97,258.78 C 2122.02,260.05 2120.46,260.4 2119.09,260.88 C 2117.95,262.67 2116.2,263.79 2114.3,264.57 L 2114.61,265.43 C 2113.25,265.77 2111.53,265.63 2111.1,267.24 C 2108.63,267.96 2107.12,270.39 2104.45,270.56 L 2104.49,271.34 C 2103.25,271.57 2102.42,272.26 2102.02,273.4 C 2101.58,273.42 2100.69,273.47 2100.24,273.5 C 2100.29,273.97 2100.39,274.92 2100.44,275.4 C 2099.27,275.47 2098.12,275.56 2097,275.65 C 2096.65,276.06 2095.95,276.89 2095.61,277.31 C 2092.37,279.11 2089.64,281.81 2086.04,282.89 C 2084.98,283.99 2083.97,285.11 2083,286.26 C 2082.45,286.3 2081.34,286.4 2080.79,286.44 C 2080.55,287.91 2079.18,288.27 2078.03,288.73 C 2077.22,289.72 2076.06,290.26 2075,290.82 C 2074.37,291.56 2073.69,292.22 2072.94,292.79 C 2071.86,293.4 2070.84,294.04 2069.84,294.69 C 2068.59,295.56 2067.36,296.42 2066.16,297.31 C 2064.5,298.62 2062.79,299.87 2060.86,300.72 C 2058.86,302.16 2056.97,303.72 2055.08,305.27 C 2053.27,306.03 2051.75,307.21 2050.3,308.47 C 2016.89,331.49 1984.1,355.41 1951.37,379.38 C 1922.09,400.69 1893.28,422.64 1864.18,444.19 C 1801.67,490.96 1739.42,538.07 1676.98,584.95 C 1664.16,594.86 1650.89,604.21 1638.19,614.29 C 1638.32,615.01 1638.47,615.75 1638.6,616.49 L 1637.38,614.47 C 1577.85,659.16 1517.53,702.79 1456.79,745.8 C 1391.2,790.4 1324.03,833.13 1252.45,867.54 C 1214.69,885.7 1175.52,901.21 1134.88,911.61 C 1110.67,917.65 1086.04,922.38 1061.09,923.79 C 1035.01,925.38 1008.72,923.83 983.13,918.51 C 962.26,914.27 942.04,907.15 922.78,898.15 C 891.68,882.76 864.02,860.82 840.92,835.01 C 829.34,821.26 818.13,807.2 806.97,793.11 C 753.41,727.9 686.73,673.88 612.95,633.12 C 574.32,612.17 534.52,593.37 493.68,577.15 C 463.57,565.33 433.03,554.42 401.83,545.86 C 401.43,545.78 400.63,545.61 400.23,545.53 L 400.47,544.58 C 397.15,544.36 393.87,543.79 390.59,543.35 L 390.71,542.32 C 388.23,541.82 385.48,542.01 383.33,540.52 C 380.3,539.81 377.21,539.53 374.13,539.23 C 373.18,537.05 370.64,537.86 368.78,537.56 C 366.3,534.98 361.87,536.08 358.57,535.36 L 358.73,534.31 C 356.62,534.01 354.5,533.74 352.37,533.65 C 352.35,533.35 352.31,532.74 352.29,532.44 C 349.85,531.98 346.34,533.37 344.87,530.75 C 339.93,530.49 335.04,529.64 330.11,529.31 C 327.32,526.42 322.41,528.9 319.26,526.49 C 315.78,526.01 312.28,525.76 308.8,525.3 C 305.08,523.49 300.77,523.96 296.83,522.96 C 300.31,522.23 303.82,521.62 307.38,521.38 L 307.44,520.42 C 310.87,520.21 314.29,519.82 317.72,519.63 L 317.48,518.55 C 322.82,518.63 328.07,517.46 333.4,517.42 L 333.4,516.39 C 337.47,516.41 341.47,515.58 345.53,515.45 L 345.36,514.37 C 350.05,514.46 354.68,513.5 359.37,513.4 L 359.42,512.38 C 363.79,512.29 368.12,511.53 372.5,511.48 L 372.46,510.46 C 376.55,510.62 380.56,509.6 384.65,509.68 L 384.47,508.54 C 390.65,508.83 396.76,507.59 402.93,507.61 C 404.72,507.6 406.48,507.24 408.22,506.86 C 425.03,504.56 442.01,503.71 458.91,502.32 C 463.15,502.27 467.53,501.01 471.69,502.33 C 512.45,516.23 551.76,534.13 589.8,554.25 C 651.81,587.43 711.15,626.31 763.13,673.88 C 783.92,692.72 803.54,712.86 821.85,734.11 C 833.97,747.84 844.13,763.11 855.62,777.35 C 879.14,807.72 906.76,836.27 941.59,853.5 C 977.07,870.41 1016.81,877.76 1056.02,876.06 C 1101.3,874.29 1145.65,862.71 1187.99,847.06 C 1226.43,832.74 1263.58,815.11 1299.62,795.56 C 1367.05,759.33 1431.53,717.91 1494.69,674.74 C 1525.44,653.53 1556.27,632.43 1586.57,610.57 C 1711.8,521.58 1834.79,429.43 1961.34,342.3 C 1980.13,329.25 1998.98,316.28 2018.11,303.75 C 2018.81,303.34 2019.4,302.79 2019.89,302.11 C 2021.08,301.61 2022.18,300.88 2023.12,299.94 C 2023.6,299.79 2024.55,299.5 2025.03,299.36 C 2027.44,296.66 2030.97,295.15 2034.01,293.21 C 2034.96,292.5 2035.93,291.8 2036.96,291.12 C 2038.81,289.57 2040.85,288.28 2043.05,287.24 C 2044.64,286 2046.45,285.05 2048.11,283.87 C 2048.56,283.72 2049.45,283.43 2049.9,283.29 C 2051.08,281.2 2053.43,280.35 2054.98,278.6 C 2055.45,278.48 2056.4,278.23 2056.87,278.1 C 2058.3,277.02 2059.81,275.99 2060.99,274.58 C 2061.54,274.51 2062.64,274.36 2063.19,274.29 C 2063.54,273.79 2064.23,272.78 2064.57,272.27 C 2066.13,271.75 2068.32,271.75 2068.87,269.78 C 2069.51,269.69 2070.81,269.52 2071.46,269.43 C 2071.44,269.01 2071.42,268.18 2071.41,267.77 C 2072.03,267.66 2073.28,267.44 2073.91,267.33 C 2074.59,266.26 2075.7,265.68 2076.8,265.06 C 2077.8,264.34 2078.89,263.82 2080.07,263.32 C 2080.43,261.86 2081.8,261.7 2083.09,261.41 C 2083.56,260.09 2084.83,259.73 2086.05,259.29 C 2086.97,258.55 2087.92,257.81 2088.88,257.05 C 2089.84,256.32 2090.92,255.82 2092.06,255.3 C 2092.72,253.91 2094.26,253.76 2095.6,253.34 C 2095.91,252.89 2096.52,252.01 2096.82,251.56 C 2097.48,251.54 2098.79,251.5 2099.45,251.48 C 2099.44,251.04 2099.41,250.15 2099.39,249.71 C 2100.07,249.66 2101.42,249.54 2102.1,249.48 C 2102.25,247.78 2103.72,247.6 2105.11,247.34 C 2105.36,245.79 2106.76,245.65 2108.08,245.39 C 2108.44,243.93 2110.05,243.86 2111.19,243.31 C 2112.8,240.09 2117.22,240.76 2118.85,237.77 C 2119.5,237.68 2120.79,237.5 2121.43,237.41 C 2121.42,237.01 2121.4,236.21 2121.38,235.81 C 2122.05,235.72 2123.38,235.53 2124.05,235.44 C 2125.29,233.19 2127.97,232.51 2130.04,231.23 C 2131,230.52 2132.02,229.85 2133.08,229.2 C 2136.64,227.57 2139.4,224.46 2143.25,223.44 C 2143.66,222.3 2144.48,221.63 2145.71,221.42 L 2145.62,220.68 C 2147.15,220.34 2148.69,219.85 2150.02,218.91 C 2150.69,218.18 2151.37,217.45 2152.06,216.71 C 2152.96,216.49 2153.91,216.27 2154.89,216.05 C 2156.91,213.81 2160.13,213.01 2161.92,210.57 C 2162.61,210.52 2163.98,210.42 2164.66,210.37 C 2164.61,209.93 2164.51,209.05 2164.46,208.61 C 2166.39,208.18 2168.34,207.71 2170.33,207.27 C 2170.33,206.97 2170.34,206.36 2170.35,206.06 C 2172.5,204.03 2176.46,204.47 2177.79,201.67 C 2178.34,201.59 2179.43,201.44 2179.98,201.36 C 2180.41,199.2 2183.62,200.11 2183.8,197.73 C 2184.39,197.66 2185.57,197.52 2186.16,197.46 C 2186.27,195.37 2188.45,195.68 2189.99,195.27 C 2190.78,194.35 2191.61,193.46 2192.49,192.58 C 2194.92,191.88 2197.04,190.45 2199.02,188.88 C 2200.46,186.1 2204.67,187.23 2205.85,184.61 C 2207.02,184.26 2208.52,184.26 2208.92,182.78 C 2211.53,181.99 2214.23,180.93 2216.01,178.74 C 2217.94,178.29 2219.78,177.46 2221.11,175.9 C 2221.64,175.82 2222.7,175.66 2223.23,175.57 C 2224.04,174.64 2224.98,173.79 2226.2,173.34 C 2227.69,171.52 2231.16,172.36 2231.75,169.75 C 2232.45,169.69 2233.85,169.56 2234.55,169.5 L 2234.23,168.31 C 2234.86,168.14 2236.12,167.8 2236.75,167.62 L 2236.47,166.62 C 2238.08,166.36 2239.77,166.03 2240.88,164.67 C 2242.02,164.26 2243.37,164 2243.99,162.74 C 2247.2,161.55 2250.53,160.2 2253.06,157.79 C 2253.68,157.73 2254.92,157.61 2255.55,157.55 C 2255.54,157.15 2255.51,156.34 2255.5,155.94 C 2256.15,155.83 2257.45,155.62 2258.1,155.52 C 2259.4,154.59 2260.8,153.76 2262.04,152.68 C 2263.32,152.1 2265.29,152.25 2265.84,150.62 C 2267.31,150.18 2269.04,149.97 2269.92,148.48 C 2270.58,148.37 2271.89,148.14 2272.55,148.02 C 2272.53,147.67 2272.48,146.96 2272.46,146.61 C 2275.29,146.2 2278.29,145.03 2280.04,142.63 C 2280.7,142.57 2282.03,142.45 2282.7,142.39 C 2282.69,141.98 2282.66,141.16 2282.64,140.75 C 2286.09,140.95 2288.47,138.33 2291.59,137.4 L 2291.42,136.5 C 2292.81,136.19 2294.22,135.85 2295.66,135.52 L 2295.4,134.54 C 2296.98,134.26 2298.63,133.9 2299.85,132.7 C 2302.21,131.35 2304.86,130.45 2306.98,128.67 C 2308.27,128.19 2309.61,127.74 2310.99,127.27 C 2311.89,126.18 2313.24,125.76 2314.58,125.38 L 2314.44,124.51 C 2315.81,124.19 2317.2,123.85 2318.63,123.52 L 2318.53,122.66 C 2320.08,122.27 2321.73,121.88 2322.82,120.55 C 2324.2,120.13 2325.6,119.73 2327.05,119.32 C 2327.46,117.67 2329.07,117.66 2330.49,117.4 L 2330.31,116.4 C 2331.4,116.12 2332.51,115.85 2333.66,115.57 L 2333.51,114.66 C 2335.32,114.27 2337.11,113.79 2338.94,113.26 C 2339.58,111.81 2341.09,111.68 2342.49,111.37 L 2342.38,110.41 C 2343.75,110.12 2345.14,109.8 2346.57,109.5 L 2346.39,108.56 C 2349.15,107.84 2352.1,107.05 2354.02,104.74 C 2356.82,104.24 2359.39,102.97 2361.77,101.4 L 2361.6,100.68 C 2363.25,100.33 2364.94,99.96 2366.64,99.59 L 2366.56,98.69 C 2369.59,98.07 2372.17,96.26 2375.09,95.25 C 2376.27,94.32 2377.7,93.74 2379.18,93.31 C 2381.77,91.57 2384.75,90.54 2387.65,89.4 L 2387.44,88.52 C 2388.97,88.09 2391.44,88.75 2391.91,86.68 C 2393.66,86.25 2395.91,86.44 2396.95,84.59 C 2398.34,84.22 2399.75,83.87 2401.2,83.5 C 2402.42,82.11 2404.29,81.87 2406,81.32 C 2407.07,80.06 2408.7,79.74 2410.24,79.26 C 2411.61,78.07 2413.33,77.54 2415.17,77.42 C 2417.19,74.93 2420.75,74.48 2423.66,73.51 L 2423.5,72.6 C 2425.17,72.25 2426.87,71.89 2428.6,71.53 L 2428.42,70.47 C 2430.11,70.16 2431.82,69.83 2433.57,69.52 L 2433.42,68.52 C 2435.03,68.21 2436.9,68.15 2438,66.65 C 2441.26,66.01 2444.15,64.25 2447.37,63.37 C 2448.71,62.18 2450.42,61.73 2452.16,61.29 C 2453.38,60.43 2454.75,59.84 2456.19,59.33 C 2458.09,58.11 2460.36,57.82 2462.58,57.51 L 2462.51,56.59 C 2464.03,56.24 2465.56,55.85 2467.14,55.45 C 2468.45,53.85 2470.61,53.83 2472.51,53.42 L 2472.33,52.55 C 2475.74,51.67 2478.92,50.06 2482.39,49.28 C 2484.07,48.04 2486.11,47.63 2488.17,47.3 C 2489.51,46.59 2491.04,46.02 2491.98,44.7 C 2494.16,44.35 2496.37,43.98 2498.59,43.57 L 2498.52,42.61 C 2502.13,42.31 2505.15,40.01 2508.75,39.55 L 2508.41,38.46 C 2510.13,38.38 2511.84,38.29 2513.63,38.21 C 2513.61,37.79 2513.57,36.97 2513.54,36.55 C 2515.6,36.46 2517.66,36.36 2519.78,36.29 C 2519.7,35.83 2519.54,34.91 2519.46,34.46 z"
       id="path37"
       style="opacity:1;fill:#fee801" />
    <path
       d="M 2691.64,62.65 C 2697.29,62.3 2702.4,59.38 2708.14,59.3 C 2708.05,61.73 2705.6,62.12 2703.92,63.06 C 2702.2,63.96 2700.3,64.37 2698.45,64.6 C 2698.52,64.9 2698.67,65.51 2698.74,65.82 C 2697.29,66.07 2695.88,66.32 2694.5,66.56 L 2694.56,67.54 C 2693.11,67.83 2691.72,68.15 2690.35,68.46 L 2690.56,69.35 C 2688.99,69.77 2686.69,69.43 2686.15,71.33 C 2683.91,71.74 2681.7,72.17 2679.51,72.59 L 2679.76,73.39 C 2678.12,73.92 2676.58,74.54 2675.2,75.49 C 2673.95,75.68 2672.74,75.85 2671.57,76.02 C 2671.59,76.39 2671.63,77.13 2671.66,77.51 C 2669.59,77.63 2667.39,77.58 2666.13,79.45 C 2664.4,79.87 2662.69,80.27 2661.02,80.68 C 2660.28,82.49 2658.32,82.25 2656.79,82.51 C 2655.84,84.51 2653.25,84.11 2651.49,84.6 L 2651.78,85.64 C 2650.29,85.93 2648.85,86.22 2647.43,86.49 L 2647.59,87.52 C 2645.35,88.05 2643.11,88.46 2640.86,88.48 C 2641.67,88.79 2642.52,89.09 2643.39,89.4 C 2641.84,89.88 2639.45,89.3 2639.14,91.38 C 2635.5,91.72 2632.52,94.04 2628.98,94.73 C 2627.93,96.05 2626.22,96.15 2624.75,96.49 C 2623.83,98.26 2621.56,98.13 2619.96,98.69 C 2619.28,100.62 2616.97,100.09 2615.42,100.51 L 2615.61,101.47 C 2614.23,101.83 2612.47,101.66 2611.99,103.27 C 2610.31,103.87 2607.52,103.22 2607.27,105.55 C 2605.93,105.61 2604.63,105.68 2603.36,105.74 C 2603.39,106.15 2603.45,106.96 2603.47,107.37 C 2599.38,107.12 2596.3,110.11 2592.42,110.57 L 2592.63,111.67 C 2591.15,111.92 2589.68,112.17 2588.27,112.42 L 2588.59,113.44 C 2587.15,113.72 2585.71,114.03 2584.34,114.33 L 2584.51,115.41 C 2582.86,115.81 2580.62,115.38 2580.03,117.36 C 2578.28,117.89 2575.41,117.12 2575.23,119.59 C 2574.5,119.59 2573.03,119.6 2572.29,119.61 C 2572.32,120.05 2572.39,120.94 2572.42,121.38 C 2570.7,121.49 2568.96,121.61 2567.31,121.74 C 2567.35,122.16 2567.44,123.02 2567.48,123.45 C 2566.67,123.47 2565.06,123.52 2564.25,123.54 C 2564.29,123.98 2564.35,124.85 2564.39,125.28 C 2562.27,125.7 2559.17,124.91 2558.08,127.22 C 2556.46,127.62 2554.89,128.02 2553.33,128.42 L 2553.58,129.45 C 2551.98,129.78 2550.4,130.16 2548.89,130.58 C 2547.84,132.13 2546.04,132.32 2544.38,132.44 C 2544.38,132.71 2544.39,133.27 2544.4,133.54 C 2542.79,133.91 2540.72,133.56 2540.06,135.43 C 2538.79,135.76 2537.51,136.06 2536.31,136.36 L 2536.48,137.47 C 2535.25,137.58 2534.05,137.69 2532.89,137.82 C 2532.18,140.69 2528.05,139.02 2527.1,141.59 C 2526.54,141.6 2525.42,141.63 2524.86,141.64 C 2524.54,142.11 2523.9,143.04 2523.58,143.5 C 2522.16,143.65 2520.78,143.8 2519.43,143.95 C 2519.43,144.32 2519.42,145.07 2519.41,145.44 C 2518.65,145.49 2517.12,145.58 2516.35,145.63 C 2516.36,146.05 2516.38,146.87 2516.39,147.28 C 2514.29,147.48 2512.24,147.83 2510.25,148.32 L 2510.47,149.32 C 2507.43,150.17 2504.48,151.38 2501.99,153.3 C 2500.55,153.86 2498.74,153.92 2498.02,155.48 C 2497.36,155.57 2496.03,155.73 2495.36,155.82 C 2495.4,156.21 2495.46,156.98 2495.49,157.37 C 2493.56,157.73 2490.73,156.93 2490.05,159.35 C 2488.33,159.77 2486.63,160.2 2484.98,160.64 C 2484.13,162.16 2482.42,162.38 2480.93,162.62 C 2478.36,164.73 2475.25,166.01 2472.09,166.85 C 2471.35,167.77 2470.42,168.34 2469.3,168.58 L 2469.54,169.38 C 2466.14,169.9 2463.42,172.31 2459.99,172.69 C 2459.31,174.61 2457.14,174.36 2455.56,174.72 C 2455.57,175.07 2455.6,175.78 2455.61,176.13 C 2454.9,176.24 2453.49,176.47 2452.78,176.58 C 2451.53,177.97 2449.77,178.43 2448.02,178.64 C 2447.54,180.33 2445.68,180.14 2444.4,180.55 L 2444.6,181.52 C 2443.19,181.87 2441.81,182.23 2440.47,182.59 L 2440.61,183.51 C 2439.2,183.82 2437.32,183.56 2437.15,185.43 C 2435.67,185.77 2434.25,186.12 2432.85,186.5 C 2431.92,188.39 2429.65,188.2 2427.94,188.66 C 2427.44,190.5 2425.49,190.38 2424.03,190.77 C 2423.54,192.16 2422.15,192.35 2420.96,192.65 C 2420.16,194.33 2418.31,194.29 2416.78,194.58 C 2416.34,196.05 2414.8,196.22 2413.62,196.72 C 2412.25,197.43 2410.83,198.06 2409.45,198.65 L 2409.6,199.58 C 2408.8,199.64 2407.2,199.78 2406.41,199.84 C 2406.42,200.22 2406.43,200.96 2406.44,201.33 C 2404.8,201.66 2402.77,201.5 2402.02,203.31 C 2400.49,203.69 2398.89,204 2398.02,205.4 C 2397.33,205.47 2395.97,205.61 2395.29,205.68 C 2395.36,206.13 2395.5,207.03 2395.57,207.49 C 2393.83,207.62 2392.1,207.76 2390.44,207.9 C 2390.45,208.25 2390.47,208.95 2390.48,209.3 C 2388.82,209.56 2387.27,210.08 2386.07,211.24 C 2384.85,211.7 2383.47,211.94 2383.03,213.3 C 2381.52,213.7 2379.73,213.63 2378.99,215.22 C 2377.56,215.79 2376.01,216.1 2375.04,217.33 C 2373.57,217.77 2372.02,218.06 2371.06,219.32 C 2369.7,219.84 2368.36,220.38 2367.23,221.26 C 2364.88,222.63 2362.55,224.12 2359.88,224.74 C 2359.54,226.46 2357.76,226.24 2356.46,226.53 L 2356.58,227.36 C 2353.92,228.38 2351.43,229.74 2349.02,231.19 C 2347.93,231.8 2346.73,232.26 2346.02,233.29 C 2343.42,234.18 2340.69,235.2 2339.03,237.5 C 2337.83,237.59 2336.68,237.67 2335.56,237.75 C 2335.58,238.19 2335.63,239.08 2335.66,239.52 C 2334.02,239.92 2331.88,239.67 2331.15,241.52 C 2329.88,241.89 2328.66,242.24 2327.46,242.59 L 2327.59,243.39 C 2326.28,243.86 2324.91,244.24 2324.08,245.4 C 2322.97,245.81 2321.9,246.2 2320.88,246.63 C 2317.51,249.02 2313.86,251.16 2310.05,252.78 C 2309.27,253.58 2308.4,254.23 2307.44,254.73 L 2307.48,255.43 C 2305.94,255.86 2303.61,255.39 2303.35,257.45 C 2300.97,258.1 2298.96,259.54 2296.84,260.68 C 2295.45,261.44 2294.14,262.3 2293,263.34 C 2291.59,263.77 2290.22,264.19 2288.88,264.62 C 2288.43,265.96 2287.19,266.39 2286.02,266.76 C 2284.92,267.87 2283.47,268.45 2282.01,268.74 C 2281.37,269.5 2280.69,270.2 2279.96,270.84 C 2278.75,271.71 2277.35,272.23 2276,272.7 C 2275.22,273.79 2274.03,274.25 2272.86,274.65 C 2272.16,276.24 2270.31,276.18 2268.95,276.67 C 2268.31,277.64 2267.42,278.31 2266.3,278.66 L 2266.51,279.35 C 2265.24,279.74 2264.01,280.15 2262.81,280.54 C 2261.53,281.45 2260.27,282.37 2259.06,283.32 C 2257.14,284.18 2255.32,285.23 2253.42,286.06 C 2253.42,286.36 2253.4,286.96 2253.4,287.25 C 2250.4,287.37 2248.59,289.79 2245.98,290.76 C 2244.45,292.83 2241.79,293.49 2239.93,295.17 C 2238.86,295.78 2237.48,296.05 2236.98,297.29 C 2235.72,297.61 2234.37,297.77 2234.03,299.18 C 2231.3,299.81 2229.06,301.41 2227.1,303.31 C 2224.62,303.87 2222.8,305.6 2221,307.24 C 2219.78,307.63 2218.52,307.96 2217.99,309.24 C 2216.55,309.68 2215.08,310.11 2214.11,311.29 C 2213.01,311.87 2211.95,312.45 2210.97,313.13 C 2209.95,313.82 2208.95,314.49 2207.99,315.18 C 2206.9,315.79 2205.57,316.13 2205.01,317.33 C 2203.73,317.62 2202.43,317.83 2202.12,319.26 C 2200.9,319.71 2199.58,320.02 2199.06,321.33 C 2197.61,321.77 2196.15,322.22 2195.18,323.41 C 2194.37,323.81 2193.6,324.22 2192.86,324.62 C 2191.9,325.44 2190.88,326.13 2189.82,326.73 C 2188.54,327.54 2187.33,328.43 2186.19,329.38 C 2185.37,329.8 2184.58,330.23 2183.82,330.67 C 2182.64,331.58 2181.32,332.27 2179.95,332.73 C 2178.76,334.06 2177.3,335.09 2175.86,336.08 C 2175.37,336.2 2174.38,336.44 2173.89,336.56 C 2173.54,338.05 2172.12,338.3 2170.93,338.68 C 2169.64,340.51 2167.55,341.46 2165.8,342.73 C 2164.23,343.87 2162.01,344.26 2161.17,346.16 C 2160.72,346.2 2159.82,346.27 2159.38,346.3 L 2159.53,347.39 C 2158.59,347.75 2157.67,348.1 2156.79,348.46 C 2155.6,349.46 2154.42,350.48 2153.14,351.31 C 2152.08,351.94 2151.07,352.63 2150.12,353.36 C 2149.35,353.78 2148.6,354.2 2147.88,354.64 C 2146.91,355.39 2145.9,356.06 2144.9,356.71 C 2143.65,357.6 2142.42,358.5 2141.13,359.27 C 2140.3,359.81 2139.57,360.45 2138.94,361.18 C 2136.81,362.28 2134.4,363.18 2133.06,365.27 C 2131.9,365.78 2130.78,366.33 2130.06,367.38 C 2128.88,367.79 2127.52,367.96 2127.31,369.38 C 2126.05,369.7 2124.84,370.12 2124.02,371.15 C 2123.28,371.8 2122.58,372.48 2121.93,373.2 C 2120.62,373.53 2119.31,373.86 2119.03,375.38 C 2118.47,375.49 2117.36,375.71 2116.8,375.82 C 2116.42,377.14 2115.2,377.59 2114.08,378.02 C 2112.6,378.98 2111,379.91 2110.12,381.48 C 2109.65,381.48 2108.7,381.48 2108.23,381.48 C 2108.27,381.93 2108.35,382.83 2108.39,383.29 C 2106.74,383.7 2104.48,383.33 2104.02,385.44 C 2103.58,385.5 2102.71,385.62 2102.27,385.69 C 2102.33,386.13 2102.45,387.02 2102.51,387.46 C 2101.71,387.51 2100.13,387.6 2099.34,387.64 C 2099.38,388.1 2099.45,389.02 2099.49,389.48 C 2098.71,389.51 2097.15,389.59 2096.37,389.63 C 2096.38,390.08 2096.39,390.99 2096.4,391.44 C 2095.78,391.52 2094.53,391.67 2093.91,391.75 C 2093.26,392.57 2092.63,393.39 2092.03,394.21 C 2091.52,394.3 2090.49,394.49 2089.98,394.58 C 2088.59,396.33 2086.6,397.38 2084.83,398.65 C 2083.7,399.98 2082.01,400.32 2080.42,400.57 C 2080.44,400.93 2080.48,401.64 2080.5,401.99 C 2075.81,404.12 2072.18,408.02 2067.75,410.61 C 2066.74,411.46 2065.7,412.29 2065.09,413.47 C 2064.42,413.53 2063.09,413.66 2062.42,413.73 C 2062.44,414.12 2062.49,414.91 2062.51,415.3 C 2061.13,415.61 2059.46,415.6 2059.11,417.27 C 2057.93,417.71 2056.74,418.13 2056.08,419.25 C 2055.07,419.93 2054.08,420.6 2053.13,421.3 C 2052.18,421.99 2051.27,422.71 2050.35,423.38 C 1990.15,466.27 1930.52,509.98 1871.55,554.56 C 1804.68,605.04 1738.12,655.92 1671.05,706.12 C 1642.54,727.65 1613.64,748.64 1584.91,769.86 C 1554.5,791.94 1524.07,814.02 1492.97,835.13 C 1460.56,857.2 1428.05,879.14 1394.63,899.67 C 1341.82,932.6 1286.73,961.97 1229.52,986.54 C 1193.42,1001.25 1156.46,1014.25 1118.27,1022.35 C 1094.14,1027.47 1069.63,1030.73 1045.01,1032.06 C 1019.64,1033.31 994.08,1032.85 968.98,1028.71 C 930.03,1022.89 892.04,1010.4 857.45,991.53 C 824.38,973.45 794.53,949.66 768.85,922.13 C 758.78,911.44 749.9,899.74 740.51,888.48 C 732.01,878.31 724.47,867.34 715.31,857.73 C 701.41,842 686.8,826.85 670.95,813.07 C 651.77,795.38 631.25,779.15 609.82,764.27 C 551.05,724.04 486.21,693.12 418.9,670.1 C 413.19,668.46 407.7,665.98 401.79,665.14 C 400.06,663.6 397.72,663.58 395.55,663.42 C 395.56,663.15 395.58,662.59 395.59,662.32 C 393.4,661.97 391.22,661.65 389.04,661.31 C 388.81,661.02 388.34,660.44 388.11,660.15 C 383.67,659.03 379.35,657.33 374.71,657.23 C 374.7,656.87 374.67,656.14 374.66,655.78 C 372.57,655.68 370.5,655.59 368.42,655.53 C 368.45,655.21 368.52,654.57 368.56,654.25 C 366.82,654.01 365.1,653.8 363.36,653.6 L 363.53,652.54 C 360.84,652.22 358.17,651.79 355.49,651.42 L 355.65,650.37 C 352.92,650.04 350.19,649.71 347.46,649.5 L 347.63,648.42 C 345.24,648.07 342.86,647.71 340.47,647.43 L 340.7,646.38 C 337.38,645.86 334.05,645.46 330.7,645.3 C 330.7,644.93 330.68,644.2 330.68,643.83 C 328.64,643.68 326.62,643.53 324.59,643.4 L 324.72,642.35 C 322.75,642.04 320.4,642.34 318.95,640.7 C 315.49,640.24 312.04,639.74 308.58,639.34 L 308.76,638.35 C 306.46,638.09 304.17,637.81 301.9,637.41 C 298.65,634.74 293.49,636.98 290.37,634.31 C 288.12,633.8 285.81,633.58 283.51,633.46 L 283.62,632.42 C 280.62,632.09 277.62,631.67 274.62,631.34 L 274.7,630.36 C 272.36,630.19 270.04,629.97 267.73,629.61 C 264.16,627.04 258.91,629.07 255.24,626.53 C 252.31,626.06 249.36,625.71 246.4,625.51 L 246.54,624.49 C 242.17,624.48 237.9,623.42 233.54,623.4 L 233.78,622.35 C 230.67,621.84 227.53,621.49 224.37,621.55 C 224.4,621.26 224.47,620.67 224.5,620.37 C 221.13,620.14 217.78,619.71 214.4,619.51 L 214.54,618.48 C 209.53,618.36 204.58,617.41 199.56,617.38 L 199.79,616.29 C 196.59,616.03 193.16,616.24 190.26,614.63 C 186.62,614.32 183,613.87 179.36,613.68 L 179.27,612.7 C 172.96,612.7 166.74,611.4 160.44,611.46 L 160.61,610.31 C 155.2,610.33 149.86,609.06 144.44,609.46 C 144.49,609.15 144.6,608.55 144.65,608.25 C 139.26,608.08 133.91,607.28 128.51,607.42 L 128.67,606.24 C 123.59,606.37 118.58,605.24 113.49,605.53 L 113.46,604.51 C 107.5,604.56 101.6,603.46 95.64,603.68 C 95.62,603.37 95.57,602.75 95.55,602.44 C 85.15,602.86 74.82,601.07 64.42,601.54 L 64.5,600.32 C 55.32,600.54 46.17,599.45 36.98,599.62 C 35,599.49 32.75,599.94 31.06,598.6 C 23.7,598.5 16.33,598.23 8.97,598.32 C 7.62,598.14 5.57,598.72 5.01,597 C 5.71,595.09 7.94,595.74 9.52,595.42 L 9.37,594.53 C 13.25,593.99 16.64,591.77 20.57,591.49 L 20.47,590.51 C 22.21,590.25 23.94,589.96 25.68,589.69 L 25.52,588.64 C 27.59,588.35 29.66,587.99 31.72,587.63 L 31.6,586.65 C 35.93,586.67 39.47,583.76 43.76,583.56 L 43.47,582.5 C 45.19,582.37 46.9,582.22 48.61,582.1 C 48.6,581.73 48.57,581 48.55,580.64 C 50.96,580.51 53.35,580.17 55.71,579.66 L 55.56,578.66 C 58.23,578.29 60.88,577.82 63.55,577.47 L 63.41,576.34 C 65.13,576.15 66.86,575.93 68.59,575.75 C 68.59,575.46 68.58,574.89 68.58,574.61 C 70.95,574.31 73.31,573.94 75.68,573.6 L 75.47,572.55 C 77.39,572.31 79.32,572.03 81.2,571.53 C 84.19,569.69 87.89,569.82 91.26,569.28 L 91.2,568.48 C 92.5,568.4 93.45,567.81 94.05,566.73 C 98.03,566.45 101.94,565.65 105.91,565.21 C 106.7,563.57 108.65,563.83 110.15,563.42 C 113.1,561.74 116.63,561.92 119.85,561.18 C 121.92,559.15 124.98,559.72 127.61,559.51 L 127.38,558.38 C 129.49,558.16 131.6,557.91 133.72,557.68 L 133.57,556.67 C 136.78,556.35 139.98,555.9 143.17,555.44 C 145.59,553.2 149.42,554.07 152.46,553.4 L 152.38,552.4 C 155.09,551.8 158.43,552.53 160.59,550.48 C 163.9,549.61 167.81,550.39 170.74,548.42 C 172.68,548.08 174.64,547.85 176.61,547.69 C 176.56,547.4 176.47,546.82 176.42,546.53 C 179.56,546.45 182.67,546.05 185.78,545.63 L 185.5,544.61 C 188.12,544.53 190.77,544.43 193.3,543.66 C 194.22,542.49 195.78,542.75 197.07,542.55 C 200.42,542.27 203.74,541.71 207.09,541.43 C 209.42,538.55 213.47,540.61 216.63,540.31 L 216.67,541.34 C 221.59,541.5 226.44,542.56 231.38,542.64 C 231.37,542.93 231.36,543.53 231.35,543.83 C 234.07,544.16 236.81,544.4 239.55,544.5 L 239.44,545.56 C 241.87,545.78 244.3,546.08 246.74,546.36 L 246.51,547.38 C 249.88,547.55 253.23,548.01 256.59,548.43 L 256.43,549.52 C 258.86,549.57 261.28,549.66 263.71,549.77 C 263.7,550.14 263.69,550.86 263.69,551.23 C 267.96,551.62 272.2,552.38 276.5,552.54 L 276.35,553.59 C 279.32,554.08 282.3,554.5 285.3,554.72 C 285.31,555 285.31,555.57 285.31,555.85 C 286.77,556.02 288.24,556.17 289.71,556.32 L 289.57,557.35 C 293.23,557.63 296.85,558.22 300.5,558.6 L 300.28,559.66 C 302.7,559.93 305.11,560.25 307.53,560.52 L 307.37,561.59 C 310.38,562.02 313.4,562.42 316.44,562.66 C 316.41,563.03 316.36,563.79 316.33,564.17 C 319.03,564.32 321.73,564.47 324.44,564.59 C 324.42,564.99 324.38,565.79 324.36,566.2 C 326.41,566.3 328.47,566.42 330.53,566.52 L 330.27,567.73 C 331.11,567.74 332.8,567.76 333.64,567.76 C 333.63,568.15 333.62,568.91 333.61,569.29 C 337.58,569.4 341.44,570.41 345.39,570.68 L 345.23,571.8 C 347.32,572.18 349.44,572.42 351.57,572.54 L 351.34,573.63 C 353.69,574 356.05,574.37 358.42,574.67 L 358.22,575.76 C 359.69,575.97 361.15,576.2 362.62,576.43 L 362.52,577.41 C 365.68,577.79 368.82,578.31 371.98,578.73 C 372.84,581.46 376.29,580.18 378.45,580.65 C 378.42,581.05 378.36,581.84 378.33,582.24 C 380.06,582.31 381.81,582.41 383.56,582.48 C 383.51,582.8 383.4,583.45 383.35,583.77 C 385.71,584.08 388.08,584.39 390.45,584.66 C 390.43,585.02 390.38,585.74 390.36,586.1 C 392.38,586.26 394.42,586.44 396.46,586.6 C 396.44,586.95 396.42,587.66 396.4,588.02 C 398.21,588.26 400.02,588.55 401.82,588.91 C 404.45,590.55 407.47,591.35 410.4,592.29 C 483.1,617.38 554.29,648.56 618.13,691.84 C 667.16,725.01 712.38,764.16 750.55,809.49 C 761.95,822.26 771.66,836.39 782.19,849.85 C 793.67,864.26 804.93,878.96 818.29,891.71 C 846.18,918.43 879.18,939.87 915.07,954.19 C 952.19,968.63 992.17,975.58 1031.99,974.66 C 1079.31,974.35 1126.01,964.12 1170.93,949.81 C 1211.48,936.96 1250.28,919.29 1288.28,900.31 C 1323.96,882.38 1358.64,862.53 1392.87,841.96 C 1455.3,804.26 1515.68,763.29 1575.28,721.28 C 1606.87,698.86 1638.7,676.77 1669.89,653.79 C 1795.74,562.94 1919.17,468.67 2047.93,381.92 C 2048.71,381.33 2049.52,380.72 2050.3,380.07 C 2050.67,379.73 2051.42,379.04 2051.8,378.7 C 2053.09,378.36 2054.7,378.27 2054.95,376.6 C 2055.38,376.55 2056.24,376.46 2056.67,376.41 C 2056.66,375.99 2056.64,375.15 2056.63,374.73 C 2058.23,374.32 2060.55,374.67 2060.89,372.46 C 2061.35,372.45 2062.28,372.43 2062.75,372.42 C 2062.71,372 2062.62,371.17 2062.58,370.75 C 2064.22,370.37 2065.9,369.97 2067.6,369.58 L 2067.47,368.66 C 2069.45,367.56 2071.66,366.54 2072.96,364.57 C 2073.62,364.48 2074.94,364.31 2075.6,364.23 C 2075.58,363.79 2075.54,362.91 2075.53,362.48 C 2076.09,362.44 2077.21,362.37 2077.78,362.33 C 2077.72,361.95 2077.62,361.19 2077.57,360.8 C 2079.12,360.47 2080.69,360.03 2082.24,359.51 C 2083.36,358.48 2084.53,357.5 2085.72,356.52 C 2086.92,356.1 2088.15,355.66 2089.41,355.25 C 2089.4,354.86 2089.38,354.1 2089.37,353.72 C 2090.13,353.65 2091.66,353.51 2092.43,353.44 C 2092.4,353.08 2092.36,352.35 2092.33,351.99 C 2094.25,351.68 2095.81,350.51 2097.3,349.3 C 2099.59,347.87 2101.9,346.44 2104.12,344.86 C 2105.1,344.26 2106.37,343.92 2106.96,342.77 C 2109.02,341.59 2111.49,340.6 2112.83,338.52 C 2114.18,338.42 2115.72,338.41 2115.83,336.62 C 2117.01,336.26 2118.22,335.91 2119.47,335.58 C 2120.31,334.59 2121.15,333.58 2121.96,332.54 C 2122.63,332.48 2123.97,332.37 2124.64,332.32 C 2124.62,331.88 2124.59,331 2124.58,330.56 C 2125.24,330.53 2126.55,330.49 2127.21,330.47 C 2127.55,330.04 2128.24,329.17 2128.58,328.73 C 2131.05,327.9 2133.01,326.03 2135.55,325.32 L 2135.4,324.31 C 2135.95,324.29 2137.06,324.25 2137.61,324.23 C 2137.61,323.81 2137.62,322.98 2137.63,322.56 C 2138.37,322.49 2139.87,322.37 2140.61,322.3 C 2140.59,321.89 2140.55,321.07 2140.52,320.67 C 2142,320.18 2144.47,320.73 2144.7,318.61 C 2145.99,318.34 2147.32,317.93 2147.93,316.58 C 2149.1,316.19 2150.34,315.82 2151.59,315.46 L 2151.48,314.66 C 2153.2,313.21 2155.93,312.84 2156.96,310.67 C 2158.4,310.29 2160.47,310.6 2160.85,308.67 C 2164.36,307.17 2167.56,304.94 2171.01,303.24 C 2172.01,301.75 2173.66,301.4 2175.39,301.33 C 2175.39,300.93 2175.39,300.15 2175.4,299.76 C 2175.94,299.73 2177.02,299.66 2177.56,299.63 L 2177.47,298.71 C 2178.61,298.17 2179.74,297.53 2180.82,296.79 C 2182.98,295.53 2185.1,294.12 2187.51,293.31 L 2187.4,292.3 C 2187.96,292.31 2189.09,292.32 2189.66,292.32 C 2189.62,291.87 2189.53,290.97 2189.49,290.52 C 2190.29,290.49 2191.88,290.43 2192.68,290.4 C 2192.66,289.97 2192.62,289.1 2192.6,288.66 C 2194.2,288.27 2196.81,288.96 2196.92,286.59 C 2197.61,286.53 2198.99,286.41 2199.68,286.35 C 2199.67,285.94 2199.63,285.12 2199.62,284.72 C 2201.14,284.32 2203.43,284.79 2203.88,282.76 C 2208.57,280.44 2213.14,277.87 2217.75,275.38 L 2217.47,274.61 C 2218.86,274.37 2220.67,274.47 2220.82,272.57 C 2222.34,272.15 2224.74,272.57 2224.7,270.31 C 2225.19,270.36 2226.18,270.44 2226.68,270.49 C 2226.66,270.05 2226.62,269.17 2226.6,268.74 C 2228.24,268.35 2229.91,267.93 2231.61,267.53 L 2231.49,266.66 C 2233.28,265.32 2235.81,264.75 2236.97,262.68 C 2238.34,262.22 2240.46,262.56 2240.8,260.67 C 2244.25,259.3 2247.29,257.02 2250.69,255.46 L 2250.51,254.44 C 2251.06,254.42 2252.17,254.39 2252.72,254.37 C 2252.69,253.96 2252.62,253.14 2252.59,252.73 C 2254.19,252.37 2256.64,252.91 2256.91,250.64 C 2258.37,250.29 2260.43,250.58 2260.92,248.68 C 2262.33,248.3 2263.73,247.74 2264.9,246.78 C 2266.01,246.25 2267.26,245.82 2268.04,244.73 C 2269.05,244.3 2270.07,243.89 2271.15,243.47 C 2273.12,241.42 2276.5,241.15 2277.94,238.57 C 2278.62,238.51 2279.97,238.41 2280.64,238.36 C 2280.62,237.91 2280.57,237.02 2280.55,236.57 C 2281.34,236.53 2282.91,236.44 2283.69,236.39 C 2283.66,235.96 2283.61,235.1 2283.58,234.67 C 2285.4,234.21 2288.51,235.17 2288.73,232.52 C 2290.02,232.32 2291.59,232.39 2291.98,230.72 C 2293.69,230.32 2295.55,230.02 2296.86,228.67 C 2298.89,227.41 2301.02,226.26 2303.31,225.46 C 2303.91,223.7 2306.04,224.09 2307.51,223.57 C 2307.51,223.34 2307.49,222.88 2307.48,222.65 C 2308.69,222.13 2310.29,222.02 2311.01,220.67 C 2312.18,220.28 2313.33,219.92 2314.58,219.57 L 2314.53,218.66 C 2315.73,218.22 2317.64,218.4 2317.88,216.63 C 2319.41,216.24 2320.98,215.86 2322.58,215.52 L 2322.39,214.44 C 2324.05,214.01 2325.72,213.61 2327.44,213.27 C 2327.43,212.91 2327.4,212.18 2327.38,211.81 C 2328.55,211.67 2329.75,211.52 2331,211.36 C 2331.38,210.11 2332.25,209.46 2333.63,209.43 L 2333.38,208.55 C 2334.81,208.24 2336.26,207.93 2337.75,207.62 L 2337.4,206.65 C 2339.06,206.5 2340.57,205.81 2341.76,204.59 C 2342.47,204.48 2343.89,204.24 2344.6,204.13 C 2344.59,203.75 2344.56,203.01 2344.55,202.64 C 2346.12,202.26 2348.67,202.92 2348.85,200.63 C 2350.25,200.19 2352.51,200.7 2353.01,198.76 C 2354.46,198.36 2356.42,198.51 2357.03,196.72 C 2358.47,196.29 2360.68,196.66 2360.91,194.62 C 2362.1,194.46 2363.33,194.3 2364.6,194.16 C 2364.59,193.78 2364.57,193.04 2364.56,192.67 C 2366.05,192.16 2368.62,192.8 2368.84,190.62 C 2370.68,190.45 2372.66,190.29 2373.94,188.7 C 2375.12,188.32 2376.54,188.12 2377.03,186.7 C 2378.84,186.26 2380.71,185.84 2382.6,185.48 L 2382.39,184.52 C 2383.9,184.14 2385.4,183.73 2386.97,183.32 C 2387.77,181.56 2389.78,181.67 2391.42,181.29 L 2391.32,180.59 C 2393.67,179 2396.29,178 2399.08,177.41 C 2399.84,175.82 2401.77,175.97 2403.21,175.39 C 2405.94,173.47 2409.52,172.92 2412.01,170.68 C 2413.31,170.02 2415.63,170.43 2415.95,168.51 C 2417.14,168.4 2418.37,168.3 2419.65,168.2 C 2419.62,167.79 2419.55,166.97 2419.51,166.55 C 2420.86,166.45 2422.24,166.34 2423.65,166.24 C 2423.63,165.83 2423.59,165.02 2423.56,164.61 C 2425.24,164.47 2426.89,164.31 2428.63,164.16 C 2428.59,163.74 2428.51,162.91 2428.47,162.49 C 2429.83,162.42 2431.23,162.36 2432.66,162.3 C 2432.64,161.89 2432.6,161.08 2432.58,160.68 C 2436.55,160.66 2439.83,158.52 2443.44,157.33 L 2443.37,156.51 C 2446.31,155.53 2449.64,154.84 2451.97,152.62 C 2453.34,152.12 2455.31,152.37 2456.06,150.74 C 2457.96,150.4 2459.85,149.77 2461.49,148.65 C 2462.78,148.23 2464.65,148.3 2464.72,146.43 C 2466.33,146.37 2467.92,146.32 2469.61,146.27 C 2469.58,145.86 2469.51,145.04 2469.47,144.64 C 2471.2,144.34 2472.96,144 2474.74,143.66 L 2474.46,142.59 C 2477.74,142.6 2480.34,140.32 2483.55,139.93 C 2483.57,139.63 2483.61,139.03 2483.63,138.73 C 2485.18,138.3 2487.42,138.67 2488.05,136.73 C 2489.56,136.53 2491.06,136.34 2492.66,136.17 C 2492.63,135.8 2492.56,135.05 2492.53,134.67 C 2496.54,134.72 2499.95,132.7 2503.59,131.43 L 2503.52,130.61 C 2505,130.12 2507.57,130.78 2507.89,128.57 C 2509.41,128.39 2510.93,128.22 2512.55,128.05 C 2512.52,127.68 2512.47,126.95 2512.44,126.58 C 2514.35,126.3 2517.01,126.86 2517.96,124.61 C 2519.53,124.28 2521.16,123.95 2522.8,123.65 L 2522.48,122.59 C 2524.7,122.37 2527.14,122.29 2528.85,120.58 C 2530.15,119.94 2532.47,120.45 2532.95,118.61 C 2534.63,118.13 2537.38,118.99 2537.92,116.69 C 2539.66,116.34 2541.43,115.97 2543.22,115.57 C 2543.89,113.73 2546.13,114.48 2547.61,113.94 C 2547.61,113.63 2547.62,113.01 2547.63,112.69 C 2549.91,112.3 2552.21,111.85 2554.54,111.46 L 2554.33,110.44 C 2555.91,110.14 2557.5,109.8 2559.14,109.45 C 2560.35,108.24 2561.94,107.7 2563.66,107.49 L 2563.52,106.62 C 2566,106.13 2568.51,105.66 2571.06,105.31 C 2571.42,103.04 2573.94,103.86 2575.61,103.55 L 2575.37,102.42 C 2577.75,101.55 2581.41,102.48 2582.8,99.85 C 2584.18,99.69 2585.65,99.55 2587.13,99.41 C 2587.27,97.01 2589.92,97.86 2591.59,97.52 L 2591.34,96.35 C 2593.32,96 2595.33,95.66 2597.38,95.36 L 2597.28,94.3 C 2599,94 2600.73,93.71 2602.52,93.45 L 2602.32,92.37 C 2604.05,92.1 2605.81,91.81 2607.61,91.57 C 2607.61,91.28 2607.63,90.71 2607.63,90.43 C 2609.28,90.17 2611,89.89 2612.72,89.63 L 2612.55,88.55 C 2614.22,88.38 2615.86,88.21 2617.61,88.04 C 2617.61,87.69 2617.62,87.01 2617.62,86.67 C 2619.88,86.36 2622.15,86.02 2624.46,85.67 C 2624.47,85.38 2624.5,84.81 2624.52,84.52 C 2626.5,84.19 2628.52,83.83 2630.56,83.5 L 2630.41,82.55 C 2632.19,82.26 2633.98,81.94 2635.81,81.63 L 2635.45,80.57 C 2637.95,80.24 2640.46,79.85 2642.99,79.38 C 2644.15,76.93 2647.18,77.76 2649.39,77.37 L 2649.36,76.37 C 2650.92,76.02 2652.5,75.66 2654.11,75.28 C 2655.97,73.88 2658.36,73.81 2660.62,73.51 L 2660.39,72.5 C 2662.73,72.13 2665.08,71.75 2667.47,71.41 L 2667.29,70.36 C 2668.99,70.13 2670.69,69.87 2672.46,69.64 C 2672.46,69.34 2672.46,68.76 2672.47,68.47 C 2674.49,68.19 2676.55,67.87 2678.63,67.56 L 2678.41,66.51 C 2683.05,66.72 2687.03,63.9 2691.61,63.72 C 2691.61,63.45 2691.63,62.92 2691.64,62.65 z"
       id="path39"
       style="opacity:1;fill:#fee801" />
    <path
       d="M 2225.1,75.53 C 2227.1,73.75 2230.12,69.53 2232.83,72.95 C 2230.87,74.16 2228.85,75.16 2226.75,75.95 C 2226.61,77.76 2224.8,77.72 2223.47,77.97 C 2223.48,78.39 2223.51,79.22 2223.53,79.63 C 2222.73,79.64 2221.14,79.64 2220.34,79.64 C 2220.39,80.07 2220.5,80.92 2220.56,81.35 C 2219.2,81.72 2217.64,81.77 2217.05,83.23 C 2215.95,83.84 2214.92,84.45 2213.98,85.2 C 2212.88,85.79 2211.74,86.32 2211.08,87.4 C 2210.2,87.8 2209.34,88.2 2208.51,88.6 C 2205.47,90.95 2202.01,92.69 2199.16,95.27 C 2198.08,95.89 2197.05,96.53 2196.08,97.22 C 2193.98,98.4 2191.96,99.7 2190.18,101.3 C 2188.27,102.28 2186.48,103.4 2184.78,104.65 C 2183.56,105.56 2182.34,106.45 2181.15,107.32 C 2180.17,107.96 2179.25,108.6 2178.35,109.26 C 2176.51,110.63 2174.63,111.95 2172.45,112.65 L 2172.55,113.33 C 2169.51,114.86 2166.95,117.17 2163.96,118.76 C 2163.03,119.76 2161.75,120.23 2160.56,120.69 L 2160.54,121.26 C 2159.42,121.67 2158.6,122.39 2158.07,123.41 C 2157.57,123.51 2156.57,123.71 2156.07,123.81 C 2154.73,125 2153.42,126.21 2152.15,127.44 C 2150.89,127.83 2149.65,128.22 2148.45,128.61 C 2148.47,129.05 2148.52,129.95 2148.55,130.4 C 2147.89,130.43 2146.57,130.49 2145.91,130.53 C 2145.11,131.54 2144.29,132.5 2143.44,133.43 C 2142.22,133.89 2141.07,134.44 2140.11,135.27 C 2139.12,135.97 2138.15,136.64 2137.19,137.28 C 2134.11,139.21 2131.16,141.32 2128.18,143.38 C 2127.34,143.81 2126.53,144.25 2125.75,144.69 C 2124.78,145.38 2123.83,146.08 2122.93,146.79 C 2121.98,147.63 2121.03,148.46 2120.13,149.29 C 2117.87,150.23 2115.95,151.72 2114.16,153.33 C 2113.05,153.87 2111.98,154.43 2111.15,155.31 C 2110.21,156 2109.3,156.69 2108.42,157.39 C 2107.52,157.77 2106.65,158.15 2105.82,158.53 C 2104.87,160.03 2103.13,160.36 2101.58,160.72 C 2101.59,161.14 2101.62,161.99 2101.64,162.41 C 2101.11,162.42 2100.05,162.43 2099.52,162.44 C 2099.53,162.92 2099.53,163.86 2099.53,164.34 C 2098.86,164.37 2097.51,164.45 2096.84,164.49 C 2096.67,166.33 2094.9,166.33 2093.52,166.66 C 2093.53,167.05 2093.56,167.81 2093.58,168.19 C 2092.81,168.27 2091.28,168.44 2090.51,168.52 C 2090.53,168.95 2090.56,169.81 2090.57,170.25 C 2089.94,170.34 2088.69,170.54 2088.07,170.64 C 2086.63,172.7 2084.42,173.92 2082.44,175.34 C 2081.86,175.59 2080.7,176.08 2080.11,176.33 C 2079.24,177.45 2078.21,178.42 2077.13,179.31 C 2075.5,179.89 2074.08,180.82 2072.9,182.04 C 2072.4,182.19 2071.4,182.49 2070.9,182.64 C 2070.57,184.06 2069.19,184.33 2068.05,184.75 C 2067.41,185.53 2066.74,186.24 2066.02,186.9 C 2064.39,188.04 2061.84,188.19 2061.19,190.34 C 2060.77,190.36 2059.93,190.4 2059.51,190.42 L 2059.57,191.33 C 2057.58,192.38 2055.81,193.75 2054.14,195.22 C 2053.09,195.9 2052.07,196.58 2051.07,197.26 C 2049.98,197.9 2048.94,198.54 2047.97,199.29 C 2047.28,199.92 2046.61,200.56 2045.98,201.2 C 2044.75,201.63 2043.43,201.96 2043.05,203.38 C 2042.57,203.5 2041.59,203.73 2041.11,203.84 C 2038.3,206.52 2034.8,208.27 2031.83,210.71 C 2030.71,211.67 2029.35,212.25 2028.03,212.78 C 2026.22,215.55 2022.71,216.36 2020.92,219.14 C 2019.67,219.55 2018.36,219.89 2017.99,221.32 C 2017.51,221.45 2016.55,221.72 2016.06,221.86 C 2015.1,222.96 2013.82,223.7 2012.44,224.04 C 2012.44,224.35 2012.43,224.97 2012.43,225.28 C 2009.84,225.78 2007.66,227.24 2006.02,229.24 C 2004.83,229.69 2003.66,230.18 2003.03,231.32 C 2002.15,231.76 2001.3,232.19 2000.47,232.62 C 2000.15,232.99 1999.52,233.72 1999.21,234.09 C 1997.69,234.86 1996.26,235.75 1994.91,236.73 C 1993.14,238.43 1991.14,239.89 1988.82,240.69 C 1988.66,242.32 1987.26,242.53 1985.96,242.72 C 1983.81,245.32 1980.95,247.21 1977.99,248.73 C 1977.17,249.7 1976.04,250.24 1974.98,250.79 C 1973.57,251.9 1972.02,252.86 1971.01,254.36 C 1970.49,254.4 1969.46,254.48 1968.94,254.52 C 1968.63,256.25 1966.97,256.45 1965.66,256.89 C 1965.64,257.28 1965.6,258.05 1965.58,258.44 C 1965.16,258.46 1964.34,258.51 1963.92,258.53 C 1963.65,260.08 1962.27,260.39 1961,260.7 C 1959.76,262.55 1957.67,263.5 1955.91,264.73 C 1954.95,265.48 1953.93,266.11 1952.94,266.73 C 1952.08,267.84 1950.74,268.27 1949.52,268.72 C 1948.7,269.58 1947.9,270.44 1947.13,271.32 C 1945.08,272.21 1942.89,273.23 1942.08,275.48 C 1941.41,275.52 1940.08,275.62 1939.41,275.66 C 1939.43,276.08 1939.47,276.9 1939.5,277.31 C 1936.69,277.49 1935.29,280.34 1932.57,280.72 C 1932.56,281.12 1932.55,281.91 1932.54,282.31 C 1931.81,282.37 1930.34,282.48 1929.61,282.54 C 1929.59,282.97 1929.55,283.82 1929.52,284.25 C 1928.99,284.27 1927.93,284.31 1927.4,284.33 L 1927.63,285.67 C 1927.17,285.7 1926.26,285.74 1925.8,285.77 C 1925.44,287.02 1924.61,287.74 1923.3,287.91 C 1923.32,288.29 1923.36,289.05 1923.38,289.42 C 1922.63,289.46 1921.14,289.53 1920.39,289.56 C 1920.37,289.96 1920.32,290.78 1920.29,291.18 C 1918.18,291.45 1916.83,293.08 1915.12,294.09 C 1912.27,295.99 1909.33,297.78 1906.87,300.16 C 1906.43,300.3 1905.56,300.58 1905.12,300.73 C 1904.59,301.25 1903.53,302.3 1902.99,302.82 C 1842.51,346.8 1783.46,392.7 1723.73,437.68 C 1629.8,509.1 1535.69,580.35 1438.84,647.79 C 1376.21,691.88 1311.65,733.58 1243.25,768.24 C 1210.23,784.6 1176.29,799.33 1141.03,810.15 C 1117.35,817.41 1092.92,822.38 1068.21,824.2 C 1047.83,825.15 1027.18,825.15 1007.19,820.61 C 985.39,816.03 964.22,807.73 945.75,795.19 C 915.58,775.58 893.18,746.88 870.66,719.38 C 853.97,698.85 835.48,679.87 816.37,661.6 C 796.78,643.43 776.86,625.52 755.42,609.53 C 728.32,588.58 700.19,568.94 670.95,551.07 C 638.61,531.59 604.9,513.86 568.88,502.18 C 562.22,499.88 555.26,498.54 548.68,496.02 C 590.38,493.34 632.18,491.25 673.98,492.6 C 677.31,492.55 680.08,494.59 682.82,496.21 C 743.05,531.5 798.76,574.52 848.1,623.92 C 876.55,652.86 903.37,683.34 930.2,713.77 C 941.76,726.2 952.53,739.49 965.76,750.25 C 979.81,761.97 996.11,771.17 1013.76,776.2 C 1037.22,782.97 1062,781.98 1086,779.22 C 1128.51,773.89 1169.34,759.62 1208.36,742.35 C 1281.12,709.9 1349.49,668.56 1415.97,624.88 C 1430.76,615.02 1445.48,605.06 1460.29,595.24 C 1492.02,573.38 1523.54,551.23 1554.99,528.97 C 1617.65,484.04 1680.23,438.98 1742.61,393.65 C 1784.57,363.27 1826.69,333.09 1868.96,303.14 L 1867.7,302.9 L 1867.07,302.78 C 1868.73,302.21 1871.52,303.01 1871.95,300.58 C 1872.41,300.54 1873.31,300.45 1873.76,300.41 C 1873.71,300 1873.6,299.19 1873.54,298.79 C 1875.78,298.67 1877.77,297.73 1879.09,295.86 C 1879.7,295.75 1880.91,295.54 1881.52,295.43 C 1881.49,295.01 1881.43,294.17 1881.4,293.75 C 1882.07,293.67 1883.4,293.49 1884.07,293.4 C 1884.27,291.82 1885.71,291.56 1887.05,291.2 C 1887.59,290.33 1888.16,289.46 1888.74,288.58 C 1889.83,288.18 1890.94,287.76 1892.08,287.34 C 1892.49,285.96 1893.79,285.64 1895.02,285.23 C 1896.33,283.44 1898.64,282.84 1900.19,281.26 C 1901.19,280.61 1902.22,279.97 1903.27,279.32 C 1904.16,278.43 1905.2,277.69 1906.42,277.25 L 1906.48,276.62 C 1907.75,276.45 1908.55,275.74 1908.88,274.5 C 1909.54,274.43 1910.84,274.29 1911.49,274.22 C 1911.5,273.85 1911.52,273.09 1911.53,272.72 C 1912.75,272.18 1914.61,272.28 1914.99,270.59 C 1915.43,270.53 1916.3,270.4 1916.73,270.33 C 1916.67,269.91 1916.53,269.07 1916.46,268.64 C 1918.16,268.47 1920.45,268.51 1920.84,266.3 C 1921.29,266.34 1922.2,266.4 1922.65,266.43 C 1922.64,266 1922.62,265.12 1922.6,264.69 C 1924.1,264.26 1925.61,263.81 1927.16,263.36 C 1927.3,261.84 1928.63,261.56 1929.91,261.2 C 1930.58,260.5 1931.27,259.81 1932.01,259.14 C 1933.55,258.4 1935.04,257.44 1936.1,256.04 C 1936.66,255.87 1937.77,255.54 1938.33,255.37 C 1939.21,254.65 1940.11,253.93 1941.07,253.23 C 1942.4,252.1 1943.75,250.98 1945.13,249.87 C 1945.6,249.74 1946.55,249.49 1947.02,249.37 C 1947.46,248 1948.74,247.66 1949.98,247.26 C 1950.62,246.54 1951.32,245.86 1952.07,245.22 C 1953.08,244.36 1954.32,243.86 1955.6,243.42 L 1955.49,242.67 C 1957.19,242.04 1958.92,241.31 1960.14,239.87 C 1960.6,239.74 1961.54,239.49 1962,239.37 C 1962.48,238.48 1963.16,237.76 1964.03,237.21 C 1965.03,236.55 1966.06,235.9 1967.13,235.28 C 1968.43,234.44 1969.64,233.46 1970.85,232.45 C 1971.29,232.38 1972.17,232.24 1972.61,232.17 C 1972.6,231.8 1972.57,231.06 1972.55,230.69 C 1974.1,230.35 1975.68,229.87 1976.85,228.67 C 1977.53,228.17 1978.23,227.68 1978.97,227.18 C 1979.87,226.19 1981.11,225.67 1982.37,225.2 L 1982.3,224.29 C 1982.87,224.24 1984.03,224.14 1984.6,224.09 C 1984.57,223.66 1984.51,222.8 1984.48,222.36 C 1985.06,222.42 1986.22,222.52 1986.8,222.58 C 1986.76,222.1 1986.68,221.13 1986.64,220.65 C 1987.41,220.57 1988.95,220.41 1989.72,220.32 C 1989.7,219.9 1989.67,219.06 1989.65,218.64 C 1990.44,218.58 1992.02,218.45 1992.81,218.39 C 1992.77,217.99 1992.68,217.18 1992.63,216.77 C 1994.5,216.49 1996.48,216.12 1997.75,214.54 C 1998.48,214.14 1999.24,213.74 2000.02,213.34 C 2000.58,212.05 2001.88,211.75 2003.1,211.35 C 2004.33,210.36 2005.57,209.38 2006.85,208.42 C 2007.3,208.37 2008.18,208.29 2008.62,208.25 C 2008.58,207.81 2008.5,206.95 2008.46,206.51 C 2009.07,206.43 2010.29,206.27 2010.9,206.19 C 2012.23,204.67 2014.02,203.68 2015.78,202.69 C 2016.77,202.04 2017.8,201.4 2018.83,200.74 C 2020.72,199.07 2022.86,197.7 2025.38,197.2 C 2025.39,196.83 2025.4,196.08 2025.4,195.71 C 2025.82,195.66 2026.66,195.56 2027.08,195.51 C 2028.22,194.42 2029.45,193.38 2030.75,192.43 C 2031.83,192.11 2032.95,191.75 2034.08,191.37 C 2034.57,190.08 2035.82,189.7 2037.03,189.26 C 2038.47,187.61 2040.36,186.43 2042.27,185.36 C 2043.49,184.5 2044.71,183.64 2045.98,182.79 C 2047.01,182.12 2048.25,181.62 2048.96,180.5 C 2049.43,180.42 2050.38,180.25 2050.85,180.16 C 2052.16,178.94 2053.69,177.98 2055.06,176.79 C 2056.21,176.33 2057.56,175.97 2057.87,174.52 C 2058.33,174.52 2059.26,174.5 2059.72,174.49 C 2059.7,174.05 2059.65,173.17 2059.63,172.73 C 2061.51,172.32 2064.57,173.05 2064.78,170.29 C 2065.14,170.31 2065.87,170.35 2066.23,170.37 C 2066.53,168.22 2069.15,168.5 2070.12,166.82 C 2071.46,166.32 2073.15,166.16 2073.94,164.72 C 2076.82,163.46 2079.39,161.67 2082.04,159.97 C 2083.25,159.63 2084.58,159.29 2084.8,157.77 C 2085.47,157.7 2086.81,157.54 2087.47,157.46 C 2087.47,157.03 2087.47,156.15 2087.47,155.71 C 2088.13,155.65 2089.46,155.53 2090.13,155.47 C 2090.33,153.74 2092.01,153.69 2093.4,153.32 L 2093.41,152.64 C 2095.61,151.45 2097.73,150.12 2099.78,148.66 C 2101.52,147.46 2103.3,146.28 2105.24,145.35 C 2106.46,144.5 2107.67,143.6 2108.87,142.65 C 2112.45,141.17 2115.49,138.71 2118.76,136.66 C 2122.35,135.07 2125.59,132.82 2128.89,130.69 C 2129.76,130.01 2130.69,129.34 2131.62,128.66 C 2132.75,128.23 2133.92,127.81 2135.12,127.38 C 2136.55,125.73 2138.43,124.55 2140.56,123.98 C 2140.56,123.66 2140.54,123.03 2140.54,122.72 C 2145.85,121.71 2149.79,117.6 2154.61,115.42 L 2154.59,114.7 C 2155.89,114.34 2157.25,113.93 2158.05,112.69 C 2159.46,112.19 2160.93,111.72 2162.43,111.28 L 2162.43,110.74 C 2163.3,110.11 2164.16,109.45 2165.02,108.75 C 2166.08,108.26 2167.17,107.79 2168.32,107.33 C 2169.97,106.25 2171.6,105.11 2173.18,103.87 C 2173.68,103.79 2174.69,103.64 2175.2,103.57 C 2176.07,102.29 2177.37,101.42 2178.65,100.54 C 2179.21,100.4 2180.33,100.12 2180.89,99.98 C 2182.17,98.9 2183.6,98.03 2185.14,97.29 C 2186.48,96.54 2187.71,95.6 2188.85,94.53 C 2190.24,94.13 2191.66,93.75 2193.12,93.36 C 2194.35,91.17 2197.04,90.59 2199.05,89.28 C 2200.16,88.25 2201.62,87.81 2203.06,87.3 C 2203.61,86.01 2204.94,85.72 2206.16,85.24 C 2208.43,83.79 2211.25,82.94 2212.89,80.66 C 2214.2,80.02 2216.19,80.16 2216.9,78.56 C 2218.26,78.08 2220,78.04 2220.95,76.71 C 2221.43,76.42 2222.39,75.83 2222.87,75.54 C 2223.43,75.54 2224.54,75.53 2225.1,75.53 z"
       id="path41"
       style="opacity:1;fill:#fee801" />
  </g>
</svg>
